<mxfile host="app.diagrams.net" agent="Mozilla/5.0 (Windows NT 10.0; Win64; x64) AppleWebKit/537.36 (KHTML, like Gecko) Chrome/134.0.0.0 Safari/537.36" version="26.1.1">
  <diagram name="LLM Problem Solving Approaches" id="mXNQYkzdl0qFFAKHajmj">
    <mxGraphModel dx="1383" dy="732" grid="1" gridSize="10" guides="1" tooltips="1" connect="1" arrows="1" fold="1" page="1" pageScale="1" pageWidth="850" pageHeight="1100" math="0" shadow="0">
      <root>
        <mxCell id="0" />
        <mxCell id="1" parent="0" />
        <mxCell id="XoWg0RiAyaY4ZKKg6dh2-18" value="漏洞程序" style="ellipse;whiteSpace=wrap;html=1;" vertex="1" parent="1">
          <mxGeometry x="330" y="20" width="90" height="30" as="geometry" />
        </mxCell>
        <mxCell id="XoWg0RiAyaY4ZKKg6dh2-19" value="有poc" style="rounded=0;whiteSpace=wrap;html=1;fillColor=#b6d7a8;" vertex="1" parent="1">
          <mxGeometry x="290" y="80" width="50" height="30" as="geometry" />
        </mxCell>
        <mxCell id="XoWg0RiAyaY4ZKKg6dh2-21" value="无POC" style="rounded=0;whiteSpace=wrap;html=1;fillColor=#f4cccc;" vertex="1" parent="1">
          <mxGeometry x="410" y="80" width="50" height="30" as="geometry" />
        </mxCell>
        <mxCell id="XoWg0RiAyaY4ZKKg6dh2-22" value="exp" style="ellipse;whiteSpace=wrap;html=1;fillColor=#d5e8d4;" vertex="1" parent="1">
          <mxGeometry x="335" y="490" width="100" height="30" as="geometry" />
        </mxCell>
        <mxCell id="XoWg0RiAyaY4ZKKg6dh2-24" value="" style="endArrow=none;dashed=1;html=1;dashPattern=1 3;strokeWidth=2;rounded=0;" edge="1" parent="1">
          <mxGeometry width="50" height="50" relative="1" as="geometry">
            <mxPoint x="240" y="60" as="sourcePoint" />
            <mxPoint x="540" y="60" as="targetPoint" />
          </mxGeometry>
        </mxCell>
        <mxCell id="XoWg0RiAyaY4ZKKg6dh2-26" value="" style="endArrow=classic;html=1;rounded=0;exitX=0.5;exitY=1;exitDx=0;exitDy=0;entryX=0.5;entryY=0;entryDx=0;entryDy=0;spacing=1;" edge="1" parent="1" source="XoWg0RiAyaY4ZKKg6dh2-18" target="XoWg0RiAyaY4ZKKg6dh2-19">
          <mxGeometry width="50" height="50" relative="1" as="geometry">
            <mxPoint x="250" y="260" as="sourcePoint" />
            <mxPoint x="300" y="210" as="targetPoint" />
          </mxGeometry>
        </mxCell>
        <mxCell id="XoWg0RiAyaY4ZKKg6dh2-27" value="" style="endArrow=classic;html=1;rounded=0;exitX=0.5;exitY=1;exitDx=0;exitDy=0;entryX=0.5;entryY=0;entryDx=0;entryDy=0;" edge="1" parent="1" source="XoWg0RiAyaY4ZKKg6dh2-18" target="XoWg0RiAyaY4ZKKg6dh2-21">
          <mxGeometry width="50" height="50" relative="1" as="geometry">
            <mxPoint x="385" y="60" as="sourcePoint" />
            <mxPoint x="325" y="90" as="targetPoint" />
          </mxGeometry>
        </mxCell>
        <mxCell id="XoWg0RiAyaY4ZKKg6dh2-29" value="" style="rounded=0;whiteSpace=wrap;html=1;fillColor=#f8cecc;strokeColor=#b85450;" vertex="1" parent="1">
          <mxGeometry x="282.5" y="130" width="50" height="30" as="geometry" />
        </mxCell>
        <mxCell id="XoWg0RiAyaY4ZKKg6dh2-30" value="" style="rounded=0;whiteSpace=wrap;html=1;fillColor=#f8cecc;strokeColor=#b85450;" vertex="1" parent="1">
          <mxGeometry x="427.5" y="130" width="50" height="30" as="geometry" />
        </mxCell>
        <mxCell id="XoWg0RiAyaY4ZKKg6dh2-31" value="" style="rounded=0;whiteSpace=wrap;html=1;fillColor=#b6d7a8;" vertex="1" parent="1">
          <mxGeometry x="352.5" y="130" width="50" height="30" as="geometry" />
        </mxCell>
        <mxCell id="XoWg0RiAyaY4ZKKg6dh2-32" value="" style="endArrow=classic;html=1;rounded=0;exitX=0.5;exitY=1;exitDx=0;exitDy=0;" edge="1" parent="1" source="XoWg0RiAyaY4ZKKg6dh2-19" target="XoWg0RiAyaY4ZKKg6dh2-29">
          <mxGeometry width="50" height="50" relative="1" as="geometry">
            <mxPoint x="385" y="60" as="sourcePoint" />
            <mxPoint x="325" y="90" as="targetPoint" />
          </mxGeometry>
        </mxCell>
        <mxCell id="XoWg0RiAyaY4ZKKg6dh2-33" value="" style="endArrow=classic;html=1;rounded=0;exitX=0.5;exitY=1;exitDx=0;exitDy=0;entryX=0.5;entryY=0;entryDx=0;entryDy=0;" edge="1" parent="1" source="XoWg0RiAyaY4ZKKg6dh2-19" target="XoWg0RiAyaY4ZKKg6dh2-31">
          <mxGeometry width="50" height="50" relative="1" as="geometry">
            <mxPoint x="325" y="120" as="sourcePoint" />
            <mxPoint x="321" y="140" as="targetPoint" />
          </mxGeometry>
        </mxCell>
        <mxCell id="XoWg0RiAyaY4ZKKg6dh2-34" value="" style="endArrow=classic;html=1;rounded=0;exitX=0.5;exitY=1;exitDx=0;exitDy=0;entryX=0.5;entryY=0;entryDx=0;entryDy=0;" edge="1" parent="1" source="XoWg0RiAyaY4ZKKg6dh2-21" target="XoWg0RiAyaY4ZKKg6dh2-30">
          <mxGeometry width="50" height="50" relative="1" as="geometry">
            <mxPoint x="335" y="130" as="sourcePoint" />
            <mxPoint x="331" y="150" as="targetPoint" />
          </mxGeometry>
        </mxCell>
        <mxCell id="XoWg0RiAyaY4ZKKg6dh2-36" value="漏洞成因诊断" style="text;html=1;align=center;verticalAlign=middle;resizable=0;points=[];autosize=1;strokeColor=none;fillColor=none;" vertex="1" parent="1">
          <mxGeometry x="220" y="30" width="100" height="30" as="geometry" />
        </mxCell>
        <mxCell id="XoWg0RiAyaY4ZKKg6dh2-37" value="" style="strokeWidth=2;html=1;shape=mxgraph.flowchart.annotation_2;align=left;labelPosition=right;pointerEvents=1;rotation=-180;" vertex="1" parent="1">
          <mxGeometry x="540" y="70" width="20" height="100" as="geometry" />
        </mxCell>
        <mxCell id="XoWg0RiAyaY4ZKKg6dh2-38" value="" style="strokeWidth=2;html=1;shape=mxgraph.flowchart.annotation_2;align=left;labelPosition=right;pointerEvents=1;rotation=0;" vertex="1" parent="1">
          <mxGeometry x="230" y="70" width="20" height="100" as="geometry" />
        </mxCell>
        <mxCell id="XoWg0RiAyaY4ZKKg6dh2-39" value="&lt;div data-docx-has-block-data=&quot;false&quot; data-lark-html-role=&quot;root&quot; data-page-id=&quot;RuBldf5Vfo9JMYx6iIKczuZnnKu&quot;&gt;&lt;ul class=&quot;list-bullet1&quot; start=&quot;1&quot;&gt;&lt;li data-list=&quot;bullet&quot; class=&quot;ace-line ace-line old-record-id-TvbRd7zTNoYlx5xaSWnctMKTnJc&quot;&gt;POC（可选）&lt;/li&gt;&lt;li data-list=&quot;bullet&quot; class=&quot;ace-line ace-line old-record-id-PfnddO90ho07tExwn2RcnNZzn04&quot;&gt;源代码（可选）&lt;/li&gt;&lt;li data-list=&quot;bullet&quot; class=&quot;ace-line ace-line old-record-id-AAgldUBWWoGs21xikZmczBg5nfc&quot;&gt;程序&lt;/li&gt;&lt;/ul&gt;&lt;/div&gt;&lt;span class=&quot;lark-record-clipboard&quot; data-lark-record-format=&quot;docx/record&quot; data-lark-record-data=&quot;{&amp;quot;isCut&amp;quot;:false,&amp;quot;rootId&amp;quot;:&amp;quot;RuBldf5Vfo9JMYx6iIKczuZnnKu&amp;quot;,&amp;quot;parentId&amp;quot;:&amp;quot;RuBldf5Vfo9JMYx6iIKczuZnnKu&amp;quot;,&amp;quot;blockIds&amp;quot;:[4,5,6],&amp;quot;recordIds&amp;quot;:[&amp;quot;TvbRd7zTNoYlx5xaSWnctMKTnJc&amp;quot;,&amp;quot;PfnddO90ho07tExwn2RcnNZzn04&amp;quot;,&amp;quot;AAgldUBWWoGs21xikZmczBg5nfc&amp;quot;],&amp;quot;recordMap&amp;quot;:{&amp;quot;TvbRd7zTNoYlx5xaSWnctMKTnJc&amp;quot;:{&amp;quot;id&amp;quot;:&amp;quot;TvbRd7zTNoYlx5xaSWnctMKTnJc&amp;quot;,&amp;quot;snapshot&amp;quot;:{&amp;quot;type&amp;quot;:&amp;quot;bullet&amp;quot;,&amp;quot;parent_id&amp;quot;:&amp;quot;RuBldf5Vfo9JMYx6iIKczuZnnKu&amp;quot;,&amp;quot;comments&amp;quot;:[],&amp;quot;revisions&amp;quot;:[],&amp;quot;locked&amp;quot;:false,&amp;quot;hidden&amp;quot;:false,&amp;quot;author&amp;quot;:&amp;quot;7412976428939051012&amp;quot;,&amp;quot;children&amp;quot;:[],&amp;quot;text&amp;quot;:{&amp;quot;initialAttributedTexts&amp;quot;:{&amp;quot;text&amp;quot;:{&amp;quot;0&amp;quot;:&amp;quot;POC（可选）&amp;quot;},&amp;quot;attribs&amp;quot;:{&amp;quot;0&amp;quot;:&amp;quot;*0+7&amp;quot;}},&amp;quot;apool&amp;quot;:{&amp;quot;numToAttrib&amp;quot;:{&amp;quot;0&amp;quot;:[&amp;quot;author&amp;quot;,&amp;quot;7412976428939051012&amp;quot;]},&amp;quot;nextNum&amp;quot;:1}},&amp;quot;align&amp;quot;:&amp;quot;&amp;quot;,&amp;quot;folded&amp;quot;:false}},&amp;quot;PfnddO90ho07tExwn2RcnNZzn04&amp;quot;:{&amp;quot;id&amp;quot;:&amp;quot;PfnddO90ho07tExwn2RcnNZzn04&amp;quot;,&amp;quot;snapshot&amp;quot;:{&amp;quot;type&amp;quot;:&amp;quot;bullet&amp;quot;,&amp;quot;parent_id&amp;quot;:&amp;quot;RuBldf5Vfo9JMYx6iIKczuZnnKu&amp;quot;,&amp;quot;comments&amp;quot;:[],&amp;quot;revisions&amp;quot;:[],&amp;quot;locked&amp;quot;:false,&amp;quot;hidden&amp;quot;:false,&amp;quot;author&amp;quot;:&amp;quot;7412976428939051012&amp;quot;,&amp;quot;children&amp;quot;:[],&amp;quot;text&amp;quot;:{&amp;quot;apool&amp;quot;:{&amp;quot;nextNum&amp;quot;:1,&amp;quot;numToAttrib&amp;quot;:{&amp;quot;0&amp;quot;:[&amp;quot;author&amp;quot;,&amp;quot;7412976428939051012&amp;quot;]}},&amp;quot;initialAttributedTexts&amp;quot;:{&amp;quot;attribs&amp;quot;:{&amp;quot;0&amp;quot;:&amp;quot;*0+7&amp;quot;},&amp;quot;text&amp;quot;:{&amp;quot;0&amp;quot;:&amp;quot;源代码（可选）&amp;quot;}}},&amp;quot;align&amp;quot;:&amp;quot;&amp;quot;,&amp;quot;folded&amp;quot;:false}},&amp;quot;AAgldUBWWoGs21xikZmczBg5nfc&amp;quot;:{&amp;quot;id&amp;quot;:&amp;quot;AAgldUBWWoGs21xikZmczBg5nfc&amp;quot;,&amp;quot;snapshot&amp;quot;:{&amp;quot;type&amp;quot;:&amp;quot;bullet&amp;quot;,&amp;quot;parent_id&amp;quot;:&amp;quot;RuBldf5Vfo9JMYx6iIKczuZnnKu&amp;quot;,&amp;quot;comments&amp;quot;:[],&amp;quot;revisions&amp;quot;:[],&amp;quot;locked&amp;quot;:false,&amp;quot;hidden&amp;quot;:false,&amp;quot;author&amp;quot;:&amp;quot;7412976428939051012&amp;quot;,&amp;quot;children&amp;quot;:[],&amp;quot;text&amp;quot;:{&amp;quot;initialAttributedTexts&amp;quot;:{&amp;quot;text&amp;quot;:{&amp;quot;0&amp;quot;:&amp;quot;程序&amp;quot;},&amp;quot;attribs&amp;quot;:{&amp;quot;0&amp;quot;:&amp;quot;*0+2&amp;quot;}},&amp;quot;apool&amp;quot;:{&amp;quot;numToAttrib&amp;quot;:{&amp;quot;0&amp;quot;:[&amp;quot;author&amp;quot;,&amp;quot;7412976428939051012&amp;quot;]},&amp;quot;nextNum&amp;quot;:1}},&amp;quot;align&amp;quot;:&amp;quot;&amp;quot;,&amp;quot;folded&amp;quot;:false}},&amp;quot;RuBldf5Vfo9JMYx6iIKczuZnnKu&amp;quot;:{&amp;quot;id&amp;quot;:&amp;quot;RuBldf5Vfo9JMYx6iIKczuZnnKu&amp;quot;,&amp;quot;snapshot&amp;quot;:{&amp;quot;type&amp;quot;:&amp;quot;page&amp;quot;,&amp;quot;parent_id&amp;quot;:&amp;quot;&amp;quot;,&amp;quot;comments&amp;quot;:null,&amp;quot;revisions&amp;quot;:null,&amp;quot;locked&amp;quot;:false,&amp;quot;hidden&amp;quot;:false,&amp;quot;author&amp;quot;:&amp;quot;7412976428939051012&amp;quot;,&amp;quot;children&amp;quot;:[&amp;quot;HIAmdu5IfoZbTSx6d4ec1iYqnzc&amp;quot;,&amp;quot;GMhhdCyuGomvA2xJty2cEYnkncf&amp;quot;,&amp;quot;TvbRd7zTNoYlx5xaSWnctMKTnJc&amp;quot;,&amp;quot;PfnddO90ho07tExwn2RcnNZzn04&amp;quot;,&amp;quot;AAgldUBWWoGs21xikZmczBg5nfc&amp;quot;,&amp;quot;KK9od5ZNiovkFzxDmaOczReLnSa&amp;quot;,&amp;quot;JDc2dlknroJyZIxdu87c74cInrd&amp;quot;,&amp;quot;S6ivdCjUBobvElx3tZ2ci1amn0e&amp;quot;,&amp;quot;RZMgdb1ORo4ybyxztb0cSrVhnxh&amp;quot;,&amp;quot;QfYqdKMoqonK9TxRnCRcim1BnHb&amp;quot;,&amp;quot;Hq00dmF4ooJ6ijxfpOucx5nnnTZ&amp;quot;,&amp;quot;UswOdZ3BaoeMtPxeuumcVQuZnkp&amp;quot;,&amp;quot;MHOtdts1To7sisxKHZ1c9iP1nxd&amp;quot;,&amp;quot;UNpSdzBXeoWLm0xjsoxctOwtnxb&amp;quot;,&amp;quot;ECuwdkumGoLwpTxDG1jc6C92nic&amp;quot;,&amp;quot;GeP8d3HaJoTEDmxGgf9cBrGknOc&amp;quot;,&amp;quot;WQZIdcfVAoHSLNx5PqPc1365nie&amp;quot;,&amp;quot;Cc3GdavQfoRWB0xrTbNcYygSnqg&amp;quot;,&amp;quot;OJXXd0mLgokEMix9HihcIP8DnMf&amp;quot;,&amp;quot;BFSOdALz1ohSE6xea9HcdN0unTe&amp;quot;,&amp;quot;Ee1zdFYTUoS1iKxCZMbcAJiknLc&amp;quot;,&amp;quot;Q8dTdYfVdoOIHJxTcH8cQom4nxy&amp;quot;,&amp;quot;RapydlbpLofvQpxWsGscCtlPn6g&amp;quot;,&amp;quot;Jm6gdqNW7oI9sCxLw4wcMv6MnUg&amp;quot;,&amp;quot;KRGwdSQ7ToKaJWxqor5cuaTInsc&amp;quot;,&amp;quot;ADeWdoFTVoUucixmIoMcbBROnWe&amp;quot;,&amp;quot;JGA9dLdCWoNfwBxKYmScFI6lnxh&amp;quot;,&amp;quot;QrCLdUKExo3xqSxWp7McDVa1nme&amp;quot;,&amp;quot;Pzh6djxgAoLJvtxvp97cIpdfnPJ&amp;quot;,&amp;quot;ZgkkdCxXOobmb6xUdYzctssjnKd&amp;quot;,&amp;quot;KFMhdJSH6on7p5xhWpucoDCUnve&amp;quot;,&amp;quot;ZClYd4C4vo6gtDx5r9Rc8pETnrh&amp;quot;,&amp;quot;QLoAdTOFUoLTFDxrAhEcOfPfnMh&amp;quot;,&amp;quot;A3CPd1q3no1a1bxUjkicf299nyd&amp;quot;,&amp;quot;OskudE3CBoS3AGxmxjScip8rnFg&amp;quot;,&amp;quot;J6YZdZahBoeX9HxxYe6cMBGQnhd&amp;quot;,&amp;quot;LNWRdg8eNoruHlxmzyVcEYqCn5d&amp;quot;,&amp;quot;BipXdwlC3oq00ZxQKu1cHDILnyd&amp;quot;,&amp;quot;GZbcdwVURo4RHyx5QN4c8OfAnui&amp;quot;,&amp;quot;WwWCdjlGporsPhxKpVHcaTS0nNb&amp;quot;,&amp;quot;WNridHP5No7neKxs281cjpCkn4g&amp;quot;,&amp;quot;JMNgdkp8forRrqxHp2fcDO2Xnbb&amp;quot;,&amp;quot;HHr1dddTIoiB6LxRlEIcWh89nwc&amp;quot;,&amp;quot;QNhsd3voYoAlZixGnfecUsubnGb&amp;quot;,&amp;quot;JEfwdlR32oBxJ2xq5QGcKh9Bnbh&amp;quot;,&amp;quot;XuaUdHM4Uof77pxL2cFcsegSnF9&amp;quot;,&amp;quot;JIEYdIVdIoNhEQx2ED7cWSQFned&amp;quot;,&amp;quot;L2sJdYLKFobazaxYC2ccqfq2n7b&amp;quot;,&amp;quot;BK4hdY8wuoY7KRxKxhRcEWDgnHd&amp;quot;,&amp;quot;PXHqd7DZtoZVFUxCY1McGU1ondd&amp;quot;,&amp;quot;RoEhd199uofHRUx3gmqcezQ1nQh&amp;quot;,&amp;quot;F7BLdgpbtoJb16xaXOocARMen8v&amp;quot;,&amp;quot;VKzRdqIAXod2rhxfUb1cm3jvnCl&amp;quot;,&amp;quot;Wo4Id1RqioaqVCx2gOqcaAV8ndc&amp;quot;,&amp;quot;GRxrdOy7foitngxVYG5cKYlVnnh&amp;quot;,&amp;quot;W2oSdsUtcoJ6rJxgx3fcsIuVnye&amp;quot;,&amp;quot;KE8NdhRWRotZNyx75XUc5FJmnQ9&amp;quot;,&amp;quot;GRPyd0TcJovDi1xEO2Jcp1uznYg&amp;quot;,&amp;quot;BfFedysT4oIa2hxrqywcGiXQnvd&amp;quot;,&amp;quot;HVFGdi44io5x6ZxqLJzcDoaanje&amp;quot;,&amp;quot;V3hsdod3aojBbKxuc4JcuheNnUf&amp;quot;,&amp;quot;MVj3dm7S9o7Z8yxDD1vcqpGjn8d&amp;quot;,&amp;quot;Pdd8duDGpo1HrExSrL9cGxpkn1f&amp;quot;,&amp;quot;BcFvdlJHNoewEGxPbmvc1QGunif&amp;quot;,&amp;quot;X4nNdQW9JoLG6DxFg8gcHC0cnYf&amp;quot;,&amp;quot;O49ydg9GgoB4y8xwXxMcj5zcnrc&amp;quot;,&amp;quot;OES5dHMu3oRxXAxfY2scUcYRnPb&amp;quot;,&amp;quot;G7mAdnxrro3AVuxjNKscXanBnId&amp;quot;,&amp;quot;TGh6dOm4loo3NxxH5smcyL7Pncb&amp;quot;,&amp;quot;GtxQdjHrEofGmixWzyScVqYmnhO&amp;quot;,&amp;quot;SOSDdvcvco8t73xfGLkc6FEqnZd&amp;quot;,&amp;quot;Jur3dSM0homYdnxoCvPcFGgjnUh&amp;quot;,&amp;quot;WjX4dkx0RoPezsxXYuFcYFeznvg&amp;quot;,&amp;quot;Jw2ydBVU1oSXq6xx4Psckcr3ngN&amp;quot;,&amp;quot;L1eydJ7nPorMDQxpIMEcOkIan9g&amp;quot;,&amp;quot;J1pVdUMhHoNnLAxNqRgctbpOnnf&amp;quot;,&amp;quot;CISudsCH1o9vkKxrDRpc6Wrbneg&amp;quot;,&amp;quot;GtZ0dERIRoL7YWxcSwrcZE7FnOc&amp;quot;,&amp;quot;U2zodFVNMoRBLSxxTmac3fF7n2g&amp;quot;,&amp;quot;OLIsdU7qBo7TeRx6bIocfmF2njd&amp;quot;,&amp;quot;GT71dYtweoYrKAxXlVtcvEAjn1c&amp;quot;,&amp;quot;F0YAdXUowoxj5VxxrFocou0hnVh&amp;quot;,&amp;quot;Hkn3dYCH5opAzmx0PRAcIjRsnId&amp;quot;,&amp;quot;YnxSd7MMeo01jXxIw88cUKTOn1b&amp;quot;,&amp;quot;CKVKdfW1got9Idxkb8ycpKkonUg&amp;quot;],&amp;quot;text&amp;quot;:{&amp;quot;apool&amp;quot;:{&amp;quot;nextNum&amp;quot;:1,&amp;quot;numToAttrib&amp;quot;:{&amp;quot;0&amp;quot;:[&amp;quot;author&amp;quot;,&amp;quot;7412976428939051012&amp;quot;]}},&amp;quot;initialAttributedTexts&amp;quot;:{&amp;quot;attribs&amp;quot;:{&amp;quot;0&amp;quot;:&amp;quot;*0+a&amp;quot;},&amp;quot;text&amp;quot;:{&amp;quot;0&amp;quot;:&amp;quot;PwnGPT-思维树&amp;quot;}}},&amp;quot;align&amp;quot;:&amp;quot;&amp;quot;,&amp;quot;doc_info&amp;quot;:{&amp;quot;editors&amp;quot;:[&amp;quot;7412976428939051012&amp;quot;],&amp;quot;options&amp;quot;:[&amp;quot;editors&amp;quot;,&amp;quot;edit_time&amp;quot;],&amp;quot;deleted_editors&amp;quot;:[&amp;quot;7254496082938462212&amp;quot;],&amp;quot;option_modified&amp;quot;:null}}}},&amp;quot;payloadMap&amp;quot;:{},&amp;quot;extra&amp;quot;:{&amp;quot;channel&amp;quot;:&amp;quot;saas&amp;quot;,&amp;quot;pasteRandomId&amp;quot;:&amp;quot;dcf0537c-a98d-4572-b193-6c7c1768ddcb&amp;quot;,&amp;quot;mention_page_title&amp;quot;:{},&amp;quot;external_mention_url&amp;quot;:{},&amp;quot;isEqualBlockSelection&amp;quot;:true},&amp;quot;isKeepQuoteContainer&amp;quot;:false,&amp;quot;selection&amp;quot;:[{&amp;quot;id&amp;quot;:4,&amp;quot;type&amp;quot;:&amp;quot;text&amp;quot;,&amp;quot;selection&amp;quot;:{&amp;quot;start&amp;quot;:0,&amp;quot;end&amp;quot;:7},&amp;quot;recordId&amp;quot;:&amp;quot;TvbRd7zTNoYlx5xaSWnctMKTnJc&amp;quot;},{&amp;quot;id&amp;quot;:5,&amp;quot;type&amp;quot;:&amp;quot;text&amp;quot;,&amp;quot;selection&amp;quot;:{&amp;quot;start&amp;quot;:0,&amp;quot;end&amp;quot;:7},&amp;quot;recordId&amp;quot;:&amp;quot;PfnddO90ho07tExwn2RcnNZzn04&amp;quot;},{&amp;quot;id&amp;quot;:6,&amp;quot;type&amp;quot;:&amp;quot;text&amp;quot;,&amp;quot;selection&amp;quot;:{&amp;quot;start&amp;quot;:0,&amp;quot;end&amp;quot;:2},&amp;quot;recordId&amp;quot;:&amp;quot;AAgldUBWWoGs21xikZmczBg5nfc&amp;quot;}],&amp;quot;pasteFlag&amp;quot;:&amp;quot;a55467dc-4448-43d9-8a51-c65f48c1ca9f&amp;quot;}&quot;&gt;&lt;/span&gt;" style="text;html=1;align=center;verticalAlign=middle;resizable=0;points=[];autosize=1;strokeColor=none;fillColor=none;" vertex="1" parent="1">
          <mxGeometry x="90" y="80" width="150" height="80" as="geometry" />
        </mxCell>
        <mxCell id="XoWg0RiAyaY4ZKKg6dh2-40" value="&lt;div data-docx-has-block-data=&quot;false&quot; data-lark-html-role=&quot;root&quot; data-page-id=&quot;RuBldf5Vfo9JMYx6iIKczuZnnKu&quot;&gt;&lt;ul class=&quot;list-bullet1&quot; start=&quot;1&quot;&gt;&lt;li data-list=&quot;bullet&quot; class=&quot;ace-line ace-line old-record-id-JDc2dlknroJyZIxdu87c74cInrd&quot;&gt;漏洞的可能类型&lt;/li&gt;&lt;li data-list=&quot;bullet&quot; class=&quot;ace-line ace-line old-record-id-S6ivdCjUBobvElx3tZ2ci1amn0e&quot;&gt;漏洞的触发点&lt;/li&gt;&lt;/ul&gt;&lt;/div&gt;&lt;span class=&quot;lark-record-clipboard&quot; data-lark-record-format=&quot;docx/record&quot; data-lark-record-data=&quot;{&amp;quot;isCut&amp;quot;:false,&amp;quot;rootId&amp;quot;:&amp;quot;RuBldf5Vfo9JMYx6iIKczuZnnKu&amp;quot;,&amp;quot;parentId&amp;quot;:&amp;quot;RuBldf5Vfo9JMYx6iIKczuZnnKu&amp;quot;,&amp;quot;blockIds&amp;quot;:[8,9],&amp;quot;recordIds&amp;quot;:[&amp;quot;JDc2dlknroJyZIxdu87c74cInrd&amp;quot;,&amp;quot;S6ivdCjUBobvElx3tZ2ci1amn0e&amp;quot;],&amp;quot;recordMap&amp;quot;:{&amp;quot;JDc2dlknroJyZIxdu87c74cInrd&amp;quot;:{&amp;quot;id&amp;quot;:&amp;quot;JDc2dlknroJyZIxdu87c74cInrd&amp;quot;,&amp;quot;snapshot&amp;quot;:{&amp;quot;type&amp;quot;:&amp;quot;bullet&amp;quot;,&amp;quot;parent_id&amp;quot;:&amp;quot;RuBldf5Vfo9JMYx6iIKczuZnnKu&amp;quot;,&amp;quot;comments&amp;quot;:[],&amp;quot;revisions&amp;quot;:[],&amp;quot;locked&amp;quot;:false,&amp;quot;hidden&amp;quot;:false,&amp;quot;author&amp;quot;:&amp;quot;7412976428939051012&amp;quot;,&amp;quot;children&amp;quot;:[],&amp;quot;text&amp;quot;:{&amp;quot;initialAttributedTexts&amp;quot;:{&amp;quot;text&amp;quot;:{&amp;quot;0&amp;quot;:&amp;quot;漏洞的可能类型&amp;quot;},&amp;quot;attribs&amp;quot;:{&amp;quot;0&amp;quot;:&amp;quot;*0+7&amp;quot;}},&amp;quot;apool&amp;quot;:{&amp;quot;numToAttrib&amp;quot;:{&amp;quot;0&amp;quot;:[&amp;quot;author&amp;quot;,&amp;quot;7412976428939051012&amp;quot;]},&amp;quot;nextNum&amp;quot;:1}},&amp;quot;align&amp;quot;:&amp;quot;&amp;quot;,&amp;quot;folded&amp;quot;:false}},&amp;quot;S6ivdCjUBobvElx3tZ2ci1amn0e&amp;quot;:{&amp;quot;id&amp;quot;:&amp;quot;S6ivdCjUBobvElx3tZ2ci1amn0e&amp;quot;,&amp;quot;snapshot&amp;quot;:{&amp;quot;type&amp;quot;:&amp;quot;bullet&amp;quot;,&amp;quot;parent_id&amp;quot;:&amp;quot;RuBldf5Vfo9JMYx6iIKczuZnnKu&amp;quot;,&amp;quot;comments&amp;quot;:[],&amp;quot;revisions&amp;quot;:[],&amp;quot;locked&amp;quot;:false,&amp;quot;hidden&amp;quot;:false,&amp;quot;author&amp;quot;:&amp;quot;7412976428939051012&amp;quot;,&amp;quot;children&amp;quot;:[],&amp;quot;text&amp;quot;:{&amp;quot;initialAttributedTexts&amp;quot;:{&amp;quot;text&amp;quot;:{&amp;quot;0&amp;quot;:&amp;quot;漏洞的触发点&amp;quot;},&amp;quot;attribs&amp;quot;:{&amp;quot;0&amp;quot;:&amp;quot;*0+6&amp;quot;}},&amp;quot;apool&amp;quot;:{&amp;quot;numToAttrib&amp;quot;:{&amp;quot;0&amp;quot;:[&amp;quot;author&amp;quot;,&amp;quot;7412976428939051012&amp;quot;]},&amp;quot;nextNum&amp;quot;:1}},&amp;quot;align&amp;quot;:&amp;quot;&amp;quot;,&amp;quot;folded&amp;quot;:false}},&amp;quot;RuBldf5Vfo9JMYx6iIKczuZnnKu&amp;quot;:{&amp;quot;id&amp;quot;:&amp;quot;RuBldf5Vfo9JMYx6iIKczuZnnKu&amp;quot;,&amp;quot;snapshot&amp;quot;:{&amp;quot;type&amp;quot;:&amp;quot;page&amp;quot;,&amp;quot;parent_id&amp;quot;:&amp;quot;&amp;quot;,&amp;quot;comments&amp;quot;:null,&amp;quot;revisions&amp;quot;:null,&amp;quot;locked&amp;quot;:false,&amp;quot;hidden&amp;quot;:false,&amp;quot;author&amp;quot;:&amp;quot;7412976428939051012&amp;quot;,&amp;quot;children&amp;quot;:[&amp;quot;HIAmdu5IfoZbTSx6d4ec1iYqnzc&amp;quot;,&amp;quot;GMhhdCyuGomvA2xJty2cEYnkncf&amp;quot;,&amp;quot;TvbRd7zTNoYlx5xaSWnctMKTnJc&amp;quot;,&amp;quot;PfnddO90ho07tExwn2RcnNZzn04&amp;quot;,&amp;quot;AAgldUBWWoGs21xikZmczBg5nfc&amp;quot;,&amp;quot;KK9od5ZNiovkFzxDmaOczReLnSa&amp;quot;,&amp;quot;JDc2dlknroJyZIxdu87c74cInrd&amp;quot;,&amp;quot;S6ivdCjUBobvElx3tZ2ci1amn0e&amp;quot;,&amp;quot;RZMgdb1ORo4ybyxztb0cSrVhnxh&amp;quot;,&amp;quot;QfYqdKMoqonK9TxRnCRcim1BnHb&amp;quot;,&amp;quot;Hq00dmF4ooJ6ijxfpOucx5nnnTZ&amp;quot;,&amp;quot;UswOdZ3BaoeMtPxeuumcVQuZnkp&amp;quot;,&amp;quot;MHOtdts1To7sisxKHZ1c9iP1nxd&amp;quot;,&amp;quot;UNpSdzBXeoWLm0xjsoxctOwtnxb&amp;quot;,&amp;quot;ECuwdkumGoLwpTxDG1jc6C92nic&amp;quot;,&amp;quot;GeP8d3HaJoTEDmxGgf9cBrGknOc&amp;quot;,&amp;quot;WQZIdcfVAoHSLNx5PqPc1365nie&amp;quot;,&amp;quot;Cc3GdavQfoRWB0xrTbNcYygSnqg&amp;quot;,&amp;quot;OJXXd0mLgokEMix9HihcIP8DnMf&amp;quot;,&amp;quot;BFSOdALz1ohSE6xea9HcdN0unTe&amp;quot;,&amp;quot;Ee1zdFYTUoS1iKxCZMbcAJiknLc&amp;quot;,&amp;quot;Q8dTdYfVdoOIHJxTcH8cQom4nxy&amp;quot;,&amp;quot;RapydlbpLofvQpxWsGscCtlPn6g&amp;quot;,&amp;quot;Jm6gdqNW7oI9sCxLw4wcMv6MnUg&amp;quot;,&amp;quot;KRGwdSQ7ToKaJWxqor5cuaTInsc&amp;quot;,&amp;quot;ADeWdoFTVoUucixmIoMcbBROnWe&amp;quot;,&amp;quot;JGA9dLdCWoNfwBxKYmScFI6lnxh&amp;quot;,&amp;quot;QrCLdUKExo3xqSxWp7McDVa1nme&amp;quot;,&amp;quot;Pzh6djxgAoLJvtxvp97cIpdfnPJ&amp;quot;,&amp;quot;ZgkkdCxXOobmb6xUdYzctssjnKd&amp;quot;,&amp;quot;KFMhdJSH6on7p5xhWpucoDCUnve&amp;quot;,&amp;quot;ZClYd4C4vo6gtDx5r9Rc8pETnrh&amp;quot;,&amp;quot;QLoAdTOFUoLTFDxrAhEcOfPfnMh&amp;quot;,&amp;quot;A3CPd1q3no1a1bxUjkicf299nyd&amp;quot;,&amp;quot;OskudE3CBoS3AGxmxjScip8rnFg&amp;quot;,&amp;quot;J6YZdZahBoeX9HxxYe6cMBGQnhd&amp;quot;,&amp;quot;LNWRdg8eNoruHlxmzyVcEYqCn5d&amp;quot;,&amp;quot;BipXdwlC3oq00ZxQKu1cHDILnyd&amp;quot;,&amp;quot;GZbcdwVURo4RHyx5QN4c8OfAnui&amp;quot;,&amp;quot;WwWCdjlGporsPhxKpVHcaTS0nNb&amp;quot;,&amp;quot;WNridHP5No7neKxs281cjpCkn4g&amp;quot;,&amp;quot;JMNgdkp8forRrqxHp2fcDO2Xnbb&amp;quot;,&amp;quot;HHr1dddTIoiB6LxRlEIcWh89nwc&amp;quot;,&amp;quot;QNhsd3voYoAlZixGnfecUsubnGb&amp;quot;,&amp;quot;JEfwdlR32oBxJ2xq5QGcKh9Bnbh&amp;quot;,&amp;quot;XuaUdHM4Uof77pxL2cFcsegSnF9&amp;quot;,&amp;quot;JIEYdIVdIoNhEQx2ED7cWSQFned&amp;quot;,&amp;quot;L2sJdYLKFobazaxYC2ccqfq2n7b&amp;quot;,&amp;quot;BK4hdY8wuoY7KRxKxhRcEWDgnHd&amp;quot;,&amp;quot;PXHqd7DZtoZVFUxCY1McGU1ondd&amp;quot;,&amp;quot;RoEhd199uofHRUx3gmqcezQ1nQh&amp;quot;,&amp;quot;F7BLdgpbtoJb16xaXOocARMen8v&amp;quot;,&amp;quot;VKzRdqIAXod2rhxfUb1cm3jvnCl&amp;quot;,&amp;quot;Wo4Id1RqioaqVCx2gOqcaAV8ndc&amp;quot;,&amp;quot;GRxrdOy7foitngxVYG5cKYlVnnh&amp;quot;,&amp;quot;W2oSdsUtcoJ6rJxgx3fcsIuVnye&amp;quot;,&amp;quot;KE8NdhRWRotZNyx75XUc5FJmnQ9&amp;quot;,&amp;quot;GRPyd0TcJovDi1xEO2Jcp1uznYg&amp;quot;,&amp;quot;BfFedysT4oIa2hxrqywcGiXQnvd&amp;quot;,&amp;quot;HVFGdi44io5x6ZxqLJzcDoaanje&amp;quot;,&amp;quot;V3hsdod3aojBbKxuc4JcuheNnUf&amp;quot;,&amp;quot;MVj3dm7S9o7Z8yxDD1vcqpGjn8d&amp;quot;,&amp;quot;Pdd8duDGpo1HrExSrL9cGxpkn1f&amp;quot;,&amp;quot;BcFvdlJHNoewEGxPbmvc1QGunif&amp;quot;,&amp;quot;X4nNdQW9JoLG6DxFg8gcHC0cnYf&amp;quot;,&amp;quot;O49ydg9GgoB4y8xwXxMcj5zcnrc&amp;quot;,&amp;quot;OES5dHMu3oRxXAxfY2scUcYRnPb&amp;quot;,&amp;quot;G7mAdnxrro3AVuxjNKscXanBnId&amp;quot;,&amp;quot;TGh6dOm4loo3NxxH5smcyL7Pncb&amp;quot;,&amp;quot;GtxQdjHrEofGmixWzyScVqYmnhO&amp;quot;,&amp;quot;SOSDdvcvco8t73xfGLkc6FEqnZd&amp;quot;,&amp;quot;Jur3dSM0homYdnxoCvPcFGgjnUh&amp;quot;,&amp;quot;WjX4dkx0RoPezsxXYuFcYFeznvg&amp;quot;,&amp;quot;Jw2ydBVU1oSXq6xx4Psckcr3ngN&amp;quot;,&amp;quot;L1eydJ7nPorMDQxpIMEcOkIan9g&amp;quot;,&amp;quot;J1pVdUMhHoNnLAxNqRgctbpOnnf&amp;quot;,&amp;quot;CISudsCH1o9vkKxrDRpc6Wrbneg&amp;quot;,&amp;quot;GtZ0dERIRoL7YWxcSwrcZE7FnOc&amp;quot;,&amp;quot;U2zodFVNMoRBLSxxTmac3fF7n2g&amp;quot;,&amp;quot;OLIsdU7qBo7TeRx6bIocfmF2njd&amp;quot;,&amp;quot;GT71dYtweoYrKAxXlVtcvEAjn1c&amp;quot;,&amp;quot;F0YAdXUowoxj5VxxrFocou0hnVh&amp;quot;,&amp;quot;Hkn3dYCH5opAzmx0PRAcIjRsnId&amp;quot;,&amp;quot;YnxSd7MMeo01jXxIw88cUKTOn1b&amp;quot;,&amp;quot;CKVKdfW1got9Idxkb8ycpKkonUg&amp;quot;],&amp;quot;text&amp;quot;:{&amp;quot;apool&amp;quot;:{&amp;quot;nextNum&amp;quot;:1,&amp;quot;numToAttrib&amp;quot;:{&amp;quot;0&amp;quot;:[&amp;quot;author&amp;quot;,&amp;quot;7412976428939051012&amp;quot;]}},&amp;quot;initialAttributedTexts&amp;quot;:{&amp;quot;attribs&amp;quot;:{&amp;quot;0&amp;quot;:&amp;quot;*0+a&amp;quot;},&amp;quot;text&amp;quot;:{&amp;quot;0&amp;quot;:&amp;quot;PwnGPT-思维树&amp;quot;}}},&amp;quot;align&amp;quot;:&amp;quot;&amp;quot;,&amp;quot;doc_info&amp;quot;:{&amp;quot;editors&amp;quot;:[&amp;quot;7412976428939051012&amp;quot;],&amp;quot;options&amp;quot;:[&amp;quot;editors&amp;quot;,&amp;quot;edit_time&amp;quot;],&amp;quot;deleted_editors&amp;quot;:[&amp;quot;7254496082938462212&amp;quot;],&amp;quot;option_modified&amp;quot;:null}}}},&amp;quot;payloadMap&amp;quot;:{},&amp;quot;extra&amp;quot;:{&amp;quot;channel&amp;quot;:&amp;quot;saas&amp;quot;,&amp;quot;pasteRandomId&amp;quot;:&amp;quot;737483c5-f1a0-46b5-97fa-4e2a70d0c176&amp;quot;,&amp;quot;mention_page_title&amp;quot;:{},&amp;quot;external_mention_url&amp;quot;:{},&amp;quot;isEqualBlockSelection&amp;quot;:true},&amp;quot;isKeepQuoteContainer&amp;quot;:false,&amp;quot;selection&amp;quot;:[{&amp;quot;id&amp;quot;:8,&amp;quot;type&amp;quot;:&amp;quot;text&amp;quot;,&amp;quot;selection&amp;quot;:{&amp;quot;start&amp;quot;:0,&amp;quot;end&amp;quot;:7},&amp;quot;recordId&amp;quot;:&amp;quot;JDc2dlknroJyZIxdu87c74cInrd&amp;quot;},{&amp;quot;id&amp;quot;:9,&amp;quot;type&amp;quot;:&amp;quot;text&amp;quot;,&amp;quot;selection&amp;quot;:{&amp;quot;start&amp;quot;:0,&amp;quot;end&amp;quot;:6},&amp;quot;recordId&amp;quot;:&amp;quot;S6ivdCjUBobvElx3tZ2ci1amn0e&amp;quot;}],&amp;quot;pasteFlag&amp;quot;:&amp;quot;a55467dc-4448-43d9-8a51-c65f48c1ca9f&amp;quot;}&quot;&gt;&lt;/span&gt;" style="text;html=1;align=center;verticalAlign=middle;resizable=0;points=[];autosize=1;strokeColor=none;fillColor=none;" vertex="1" parent="1">
          <mxGeometry x="530" y="85" width="150" height="70" as="geometry" />
        </mxCell>
        <mxCell id="XoWg0RiAyaY4ZKKg6dh2-41" value="..." style="text;html=1;align=center;verticalAlign=middle;resizable=0;points=[];autosize=1;strokeColor=none;fillColor=none;" vertex="1" parent="1">
          <mxGeometry x="360" y="160" width="30" height="30" as="geometry" />
        </mxCell>
        <mxCell id="XoWg0RiAyaY4ZKKg6dh2-42" value="" style="endArrow=none;dashed=1;html=1;dashPattern=1 3;strokeWidth=2;rounded=0;" edge="1" parent="1">
          <mxGeometry width="50" height="50" relative="1" as="geometry">
            <mxPoint x="240" y="210" as="sourcePoint" />
            <mxPoint x="540" y="210" as="targetPoint" />
          </mxGeometry>
        </mxCell>
        <mxCell id="XoWg0RiAyaY4ZKKg6dh2-45" value="漏洞利用模式推理" style="text;html=1;align=center;verticalAlign=middle;resizable=0;points=[];autosize=1;strokeColor=none;fillColor=none;" vertex="1" parent="1">
          <mxGeometry x="220" y="180" width="120" height="30" as="geometry" />
        </mxCell>
        <mxCell id="XoWg0RiAyaY4ZKKg6dh2-46" value="内存读" style="rounded=0;whiteSpace=wrap;html=1;fillColor=#f8cecc;strokeColor=#333333;" vertex="1" parent="1">
          <mxGeometry x="282.5" y="230" width="50" height="30" as="geometry" />
        </mxCell>
        <mxCell id="XoWg0RiAyaY4ZKKg6dh2-47" value="RIP错误" style="rounded=0;whiteSpace=wrap;html=1;fillColor=#d5e8d4;strokeColor=#82b366;" vertex="1" parent="1">
          <mxGeometry x="435" y="230" width="50" height="30" as="geometry" />
        </mxCell>
        <mxCell id="XoWg0RiAyaY4ZKKg6dh2-48" value="" style="rounded=0;whiteSpace=wrap;html=1;fillColor=#f8cecc;strokeColor=#b85450;" vertex="1" parent="1">
          <mxGeometry x="215" y="280" width="50" height="30" as="geometry" />
        </mxCell>
        <mxCell id="XoWg0RiAyaY4ZKKg6dh2-49" value="" style="rounded=0;whiteSpace=wrap;html=1;fillColor=#f8cecc;strokeColor=#b85450;" vertex="1" parent="1">
          <mxGeometry x="500" y="280" width="50" height="30" as="geometry" />
        </mxCell>
        <mxCell id="XoWg0RiAyaY4ZKKg6dh2-50" value="" style="rounded=0;whiteSpace=wrap;html=1;fillColor=#b6d7a8;" vertex="1" parent="1">
          <mxGeometry x="427.5" y="280" width="50" height="30" as="geometry" />
        </mxCell>
        <mxCell id="XoWg0RiAyaY4ZKKg6dh2-54" value="assert" style="rounded=0;whiteSpace=wrap;html=1;fillColor=#f4cccc;" vertex="1" parent="1">
          <mxGeometry x="357.5" y="230" width="50" height="30" as="geometry" />
        </mxCell>
        <mxCell id="XoWg0RiAyaY4ZKKg6dh2-55" value="" style="rounded=0;whiteSpace=wrap;html=1;fillColor=#f8cecc;strokeColor=#b85450;" vertex="1" parent="1">
          <mxGeometry x="290" y="280" width="50" height="30" as="geometry" />
        </mxCell>
        <mxCell id="XoWg0RiAyaY4ZKKg6dh2-56" value="" style="rounded=0;whiteSpace=wrap;html=1;fillColor=#f8cecc;strokeColor=#b85450;" vertex="1" parent="1">
          <mxGeometry x="352.5" y="280" width="50" height="30" as="geometry" />
        </mxCell>
        <mxCell id="XoWg0RiAyaY4ZKKg6dh2-59" value="" style="endArrow=classic;html=1;rounded=0;exitX=0.5;exitY=1;exitDx=0;exitDy=0;entryX=0.5;entryY=0;entryDx=0;entryDy=0;" edge="1" parent="1" source="XoWg0RiAyaY4ZKKg6dh2-46" target="XoWg0RiAyaY4ZKKg6dh2-48">
          <mxGeometry width="50" height="50" relative="1" as="geometry">
            <mxPoint x="320" y="410" as="sourcePoint" />
            <mxPoint x="383" y="430" as="targetPoint" />
          </mxGeometry>
        </mxCell>
        <mxCell id="XoWg0RiAyaY4ZKKg6dh2-60" value="" style="endArrow=classic;html=1;rounded=0;exitX=0.5;exitY=1;exitDx=0;exitDy=0;entryX=0.5;entryY=0;entryDx=0;entryDy=0;" edge="1" parent="1" source="XoWg0RiAyaY4ZKKg6dh2-46" target="XoWg0RiAyaY4ZKKg6dh2-55">
          <mxGeometry width="50" height="50" relative="1" as="geometry">
            <mxPoint x="318" y="270" as="sourcePoint" />
            <mxPoint x="250" y="290" as="targetPoint" />
          </mxGeometry>
        </mxCell>
        <mxCell id="XoWg0RiAyaY4ZKKg6dh2-63" value="" style="endArrow=classic;html=1;rounded=0;exitX=0.5;exitY=1;exitDx=0;exitDy=0;entryX=0.5;entryY=0;entryDx=0;entryDy=0;" edge="1" parent="1" source="XoWg0RiAyaY4ZKKg6dh2-47" target="XoWg0RiAyaY4ZKKg6dh2-49">
          <mxGeometry width="50" height="50" relative="1" as="geometry">
            <mxPoint x="318" y="270" as="sourcePoint" />
            <mxPoint x="325" y="290" as="targetPoint" />
          </mxGeometry>
        </mxCell>
        <mxCell id="XoWg0RiAyaY4ZKKg6dh2-64" value="" style="endArrow=classic;html=1;rounded=0;exitX=0.4;exitY=1.044;exitDx=0;exitDy=0;entryX=0.5;entryY=0;entryDx=0;entryDy=0;exitPerimeter=0;" edge="1" parent="1" source="XoWg0RiAyaY4ZKKg6dh2-47" target="XoWg0RiAyaY4ZKKg6dh2-50">
          <mxGeometry width="50" height="50" relative="1" as="geometry">
            <mxPoint x="328" y="280" as="sourcePoint" />
            <mxPoint x="335" y="300" as="targetPoint" />
          </mxGeometry>
        </mxCell>
        <mxCell id="XoWg0RiAyaY4ZKKg6dh2-65" value="" style="endArrow=classic;html=1;rounded=0;exitX=0.5;exitY=1;exitDx=0;exitDy=0;entryX=0.5;entryY=0;entryDx=0;entryDy=0;" edge="1" parent="1" source="XoWg0RiAyaY4ZKKg6dh2-54" target="XoWg0RiAyaY4ZKKg6dh2-56">
          <mxGeometry width="50" height="50" relative="1" as="geometry">
            <mxPoint x="338" y="290" as="sourcePoint" />
            <mxPoint x="345" y="310" as="targetPoint" />
          </mxGeometry>
        </mxCell>
        <mxCell id="XoWg0RiAyaY4ZKKg6dh2-66" value="" style="strokeWidth=2;html=1;shape=mxgraph.flowchart.annotation_2;align=left;labelPosition=right;pointerEvents=1;rotation=0;" vertex="1" parent="1">
          <mxGeometry x="180" y="240" width="20" height="100" as="geometry" />
        </mxCell>
        <mxCell id="XoWg0RiAyaY4ZKKg6dh2-67" value="&lt;div data-docx-has-block-data=&quot;false&quot; data-lark-html-role=&quot;root&quot; data-page-id=&quot;RuBldf5Vfo9JMYx6iIKczuZnnKu&quot;&gt;&lt;ul class=&quot;list-bullet1&quot; start=&quot;1&quot;&gt;&lt;li data-list=&quot;bullet&quot; class=&quot;ace-line ace-line old-record-id-Jm6gdqNW7oI9sCxLw4wcMv6MnUg&quot;&gt;POC（可选）&lt;/li&gt;&lt;li data-list=&quot;bullet&quot; class=&quot;ace-line ace-line old-record-id-KRGwdSQ7ToKaJWxqor5cuaTInsc&quot;&gt;&lt;strong&gt;漏洞成因诊断&lt;/strong&gt;的输出&lt;/li&gt;&lt;span class=&quot;lark-record-clipboard&quot; data-lark-record-format=&quot;docx/record&quot; data-lark-record-data=&quot;{&amp;quot;isCut&amp;quot;:false,&amp;quot;rootId&amp;quot;:&amp;quot;RuBldf5Vfo9JMYx6iIKczuZnnKu&amp;quot;,&amp;quot;parentId&amp;quot;:&amp;quot;RuBldf5Vfo9JMYx6iIKczuZnnKu&amp;quot;,&amp;quot;blockIds&amp;quot;:[40,41],&amp;quot;recordIds&amp;quot;:[&amp;quot;Jm6gdqNW7oI9sCxLw4wcMv6MnUg&amp;quot;,&amp;quot;KRGwdSQ7ToKaJWxqor5cuaTInsc&amp;quot;],&amp;quot;recordMap&amp;quot;:{&amp;quot;Jm6gdqNW7oI9sCxLw4wcMv6MnUg&amp;quot;:{&amp;quot;id&amp;quot;:&amp;quot;Jm6gdqNW7oI9sCxLw4wcMv6MnUg&amp;quot;,&amp;quot;snapshot&amp;quot;:{&amp;quot;type&amp;quot;:&amp;quot;bullet&amp;quot;,&amp;quot;parent_id&amp;quot;:&amp;quot;RuBldf5Vfo9JMYx6iIKczuZnnKu&amp;quot;,&amp;quot;comments&amp;quot;:[],&amp;quot;revisions&amp;quot;:[],&amp;quot;locked&amp;quot;:false,&amp;quot;hidden&amp;quot;:false,&amp;quot;author&amp;quot;:&amp;quot;7412976428939051012&amp;quot;,&amp;quot;children&amp;quot;:[],&amp;quot;text&amp;quot;:{&amp;quot;initialAttributedTexts&amp;quot;:{&amp;quot;text&amp;quot;:{&amp;quot;0&amp;quot;:&amp;quot;POC（可选）&amp;quot;},&amp;quot;attribs&amp;quot;:{&amp;quot;0&amp;quot;:&amp;quot;*0+7&amp;quot;}},&amp;quot;apool&amp;quot;:{&amp;quot;numToAttrib&amp;quot;:{&amp;quot;0&amp;quot;:[&amp;quot;author&amp;quot;,&amp;quot;7412976428939051012&amp;quot;]},&amp;quot;nextNum&amp;quot;:1}},&amp;quot;align&amp;quot;:&amp;quot;&amp;quot;,&amp;quot;folded&amp;quot;:false}},&amp;quot;KRGwdSQ7ToKaJWxqor5cuaTInsc&amp;quot;:{&amp;quot;id&amp;quot;:&amp;quot;KRGwdSQ7ToKaJWxqor5cuaTInsc&amp;quot;,&amp;quot;snapshot&amp;quot;:{&amp;quot;type&amp;quot;:&amp;quot;bullet&amp;quot;,&amp;quot;parent_id&amp;quot;:&amp;quot;RuBldf5Vfo9JMYx6iIKczuZnnKu&amp;quot;,&amp;quot;comments&amp;quot;:[],&amp;quot;revisions&amp;quot;:[],&amp;quot;locked&amp;quot;:false,&amp;quot;hidden&amp;quot;:false,&amp;quot;author&amp;quot;:&amp;quot;7412976428939051012&amp;quot;,&amp;quot;children&amp;quot;:[],&amp;quot;text&amp;quot;:{&amp;quot;initialAttributedTexts&amp;quot;:{&amp;quot;text&amp;quot;:{&amp;quot;0&amp;quot;:&amp;quot;漏洞成因诊断的输出&amp;quot;},&amp;quot;attribs&amp;quot;:{&amp;quot;0&amp;quot;:&amp;quot;*0*1+6*0+3&amp;quot;}},&amp;quot;apool&amp;quot;:{&amp;quot;numToAttrib&amp;quot;:{&amp;quot;0&amp;quot;:[&amp;quot;author&amp;quot;,&amp;quot;7412976428939051012&amp;quot;],&amp;quot;1&amp;quot;:[&amp;quot;bold&amp;quot;,&amp;quot;true&amp;quot;]},&amp;quot;nextNum&amp;quot;:2}},&amp;quot;align&amp;quot;:&amp;quot;&amp;quot;,&amp;quot;folded&amp;quot;:false}},&amp;quot;RuBldf5Vfo9JMYx6iIKczuZnnKu&amp;quot;:{&amp;quot;id&amp;quot;:&amp;quot;RuBldf5Vfo9JMYx6iIKczuZnnKu&amp;quot;,&amp;quot;snapshot&amp;quot;:{&amp;quot;type&amp;quot;:&amp;quot;page&amp;quot;,&amp;quot;parent_id&amp;quot;:&amp;quot;&amp;quot;,&amp;quot;comments&amp;quot;:null,&amp;quot;revisions&amp;quot;:null,&amp;quot;locked&amp;quot;:false,&amp;quot;hidden&amp;quot;:false,&amp;quot;author&amp;quot;:&amp;quot;7412976428939051012&amp;quot;,&amp;quot;children&amp;quot;:[&amp;quot;HIAmdu5IfoZbTSx6d4ec1iYqnzc&amp;quot;,&amp;quot;GMhhdCyuGomvA2xJty2cEYnkncf&amp;quot;,&amp;quot;TvbRd7zTNoYlx5xaSWnctMKTnJc&amp;quot;,&amp;quot;PfnddO90ho07tExwn2RcnNZzn04&amp;quot;,&amp;quot;AAgldUBWWoGs21xikZmczBg5nfc&amp;quot;,&amp;quot;KK9od5ZNiovkFzxDmaOczReLnSa&amp;quot;,&amp;quot;JDc2dlknroJyZIxdu87c74cInrd&amp;quot;,&amp;quot;S6ivdCjUBobvElx3tZ2ci1amn0e&amp;quot;,&amp;quot;RZMgdb1ORo4ybyxztb0cSrVhnxh&amp;quot;,&amp;quot;QfYqdKMoqonK9TxRnCRcim1BnHb&amp;quot;,&amp;quot;Hq00dmF4ooJ6ijxfpOucx5nnnTZ&amp;quot;,&amp;quot;UswOdZ3BaoeMtPxeuumcVQuZnkp&amp;quot;,&amp;quot;MHOtdts1To7sisxKHZ1c9iP1nxd&amp;quot;,&amp;quot;UNpSdzBXeoWLm0xjsoxctOwtnxb&amp;quot;,&amp;quot;ECuwdkumGoLwpTxDG1jc6C92nic&amp;quot;,&amp;quot;GeP8d3HaJoTEDmxGgf9cBrGknOc&amp;quot;,&amp;quot;WQZIdcfVAoHSLNx5PqPc1365nie&amp;quot;,&amp;quot;Cc3GdavQfoRWB0xrTbNcYygSnqg&amp;quot;,&amp;quot;OJXXd0mLgokEMix9HihcIP8DnMf&amp;quot;,&amp;quot;BFSOdALz1ohSE6xea9HcdN0unTe&amp;quot;,&amp;quot;Ee1zdFYTUoS1iKxCZMbcAJiknLc&amp;quot;,&amp;quot;Q8dTdYfVdoOIHJxTcH8cQom4nxy&amp;quot;,&amp;quot;RapydlbpLofvQpxWsGscCtlPn6g&amp;quot;,&amp;quot;Jm6gdqNW7oI9sCxLw4wcMv6MnUg&amp;quot;,&amp;quot;KRGwdSQ7ToKaJWxqor5cuaTInsc&amp;quot;,&amp;quot;ADeWdoFTVoUucixmIoMcbBROnWe&amp;quot;,&amp;quot;JGA9dLdCWoNfwBxKYmScFI6lnxh&amp;quot;,&amp;quot;QrCLdUKExo3xqSxWp7McDVa1nme&amp;quot;,&amp;quot;Pzh6djxgAoLJvtxvp97cIpdfnPJ&amp;quot;,&amp;quot;ZgkkdCxXOobmb6xUdYzctssjnKd&amp;quot;,&amp;quot;KFMhdJSH6on7p5xhWpucoDCUnve&amp;quot;,&amp;quot;ZClYd4C4vo6gtDx5r9Rc8pETnrh&amp;quot;,&amp;quot;QLoAdTOFUoLTFDxrAhEcOfPfnMh&amp;quot;,&amp;quot;A3CPd1q3no1a1bxUjkicf299nyd&amp;quot;,&amp;quot;OskudE3CBoS3AGxmxjScip8rnFg&amp;quot;,&amp;quot;J6YZdZahBoeX9HxxYe6cMBGQnhd&amp;quot;,&amp;quot;LNWRdg8eNoruHlxmzyVcEYqCn5d&amp;quot;,&amp;quot;BipXdwlC3oq00ZxQKu1cHDILnyd&amp;quot;,&amp;quot;GZbcdwVURo4RHyx5QN4c8OfAnui&amp;quot;,&amp;quot;WwWCdjlGporsPhxKpVHcaTS0nNb&amp;quot;,&amp;quot;WNridHP5No7neKxs281cjpCkn4g&amp;quot;,&amp;quot;JMNgdkp8forRrqxHp2fcDO2Xnbb&amp;quot;,&amp;quot;HHr1dddTIoiB6LxRlEIcWh89nwc&amp;quot;,&amp;quot;QNhsd3voYoAlZixGnfecUsubnGb&amp;quot;,&amp;quot;JEfwdlR32oBxJ2xq5QGcKh9Bnbh&amp;quot;,&amp;quot;XuaUdHM4Uof77pxL2cFcsegSnF9&amp;quot;,&amp;quot;JIEYdIVdIoNhEQx2ED7cWSQFned&amp;quot;,&amp;quot;L2sJdYLKFobazaxYC2ccqfq2n7b&amp;quot;,&amp;quot;BK4hdY8wuoY7KRxKxhRcEWDgnHd&amp;quot;,&amp;quot;PXHqd7DZtoZVFUxCY1McGU1ondd&amp;quot;,&amp;quot;RoEhd199uofHRUx3gmqcezQ1nQh&amp;quot;,&amp;quot;F7BLdgpbtoJb16xaXOocARMen8v&amp;quot;,&amp;quot;VKzRdqIAXod2rhxfUb1cm3jvnCl&amp;quot;,&amp;quot;Wo4Id1RqioaqVCx2gOqcaAV8ndc&amp;quot;,&amp;quot;GRxrdOy7foitngxVYG5cKYlVnnh&amp;quot;,&amp;quot;W2oSdsUtcoJ6rJxgx3fcsIuVnye&amp;quot;,&amp;quot;KE8NdhRWRotZNyx75XUc5FJmnQ9&amp;quot;,&amp;quot;GRPyd0TcJovDi1xEO2Jcp1uznYg&amp;quot;,&amp;quot;BfFedysT4oIa2hxrqywcGiXQnvd&amp;quot;,&amp;quot;HVFGdi44io5x6ZxqLJzcDoaanje&amp;quot;,&amp;quot;V3hsdod3aojBbKxuc4JcuheNnUf&amp;quot;,&amp;quot;MVj3dm7S9o7Z8yxDD1vcqpGjn8d&amp;quot;,&amp;quot;Pdd8duDGpo1HrExSrL9cGxpkn1f&amp;quot;,&amp;quot;BcFvdlJHNoewEGxPbmvc1QGunif&amp;quot;,&amp;quot;X4nNdQW9JoLG6DxFg8gcHC0cnYf&amp;quot;,&amp;quot;O49ydg9GgoB4y8xwXxMcj5zcnrc&amp;quot;,&amp;quot;OES5dHMu3oRxXAxfY2scUcYRnPb&amp;quot;,&amp;quot;G7mAdnxrro3AVuxjNKscXanBnId&amp;quot;,&amp;quot;TGh6dOm4loo3NxxH5smcyL7Pncb&amp;quot;,&amp;quot;GtxQdjHrEofGmixWzyScVqYmnhO&amp;quot;,&amp;quot;SOSDdvcvco8t73xfGLkc6FEqnZd&amp;quot;,&amp;quot;Jur3dSM0homYdnxoCvPcFGgjnUh&amp;quot;,&amp;quot;WjX4dkx0RoPezsxXYuFcYFeznvg&amp;quot;,&amp;quot;Jw2ydBVU1oSXq6xx4Psckcr3ngN&amp;quot;,&amp;quot;L1eydJ7nPorMDQxpIMEcOkIan9g&amp;quot;,&amp;quot;J1pVdUMhHoNnLAxNqRgctbpOnnf&amp;quot;,&amp;quot;CISudsCH1o9vkKxrDRpc6Wrbneg&amp;quot;,&amp;quot;GtZ0dERIRoL7YWxcSwrcZE7FnOc&amp;quot;,&amp;quot;U2zodFVNMoRBLSxxTmac3fF7n2g&amp;quot;,&amp;quot;OLIsdU7qBo7TeRx6bIocfmF2njd&amp;quot;,&amp;quot;GT71dYtweoYrKAxXlVtcvEAjn1c&amp;quot;,&amp;quot;F0YAdXUowoxj5VxxrFocou0hnVh&amp;quot;,&amp;quot;Hkn3dYCH5opAzmx0PRAcIjRsnId&amp;quot;,&amp;quot;YnxSd7MMeo01jXxIw88cUKTOn1b&amp;quot;,&amp;quot;CKVKdfW1got9Idxkb8ycpKkonUg&amp;quot;],&amp;quot;text&amp;quot;:{&amp;quot;apool&amp;quot;:{&amp;quot;nextNum&amp;quot;:1,&amp;quot;numToAttrib&amp;quot;:{&amp;quot;0&amp;quot;:[&amp;quot;author&amp;quot;,&amp;quot;7412976428939051012&amp;quot;]}},&amp;quot;initialAttributedTexts&amp;quot;:{&amp;quot;attribs&amp;quot;:{&amp;quot;0&amp;quot;:&amp;quot;*0+a&amp;quot;},&amp;quot;text&amp;quot;:{&amp;quot;0&amp;quot;:&amp;quot;PwnGPT-思维树&amp;quot;}}},&amp;quot;align&amp;quot;:&amp;quot;&amp;quot;,&amp;quot;doc_info&amp;quot;:{&amp;quot;editors&amp;quot;:[&amp;quot;7412976428939051012&amp;quot;],&amp;quot;options&amp;quot;:[&amp;quot;editors&amp;quot;,&amp;quot;edit_time&amp;quot;],&amp;quot;deleted_editors&amp;quot;:[&amp;quot;7254496082938462212&amp;quot;],&amp;quot;option_modified&amp;quot;:null}}}},&amp;quot;payloadMap&amp;quot;:{},&amp;quot;extra&amp;quot;:{&amp;quot;channel&amp;quot;:&amp;quot;saas&amp;quot;,&amp;quot;pasteRandomId&amp;quot;:&amp;quot;baa082a6-12bd-4eeb-b7c5-1b14ca660fb2&amp;quot;,&amp;quot;mention_page_title&amp;quot;:{},&amp;quot;external_mention_url&amp;quot;:{},&amp;quot;isEqualBlockSelection&amp;quot;:true},&amp;quot;isKeepQuoteContainer&amp;quot;:false,&amp;quot;selection&amp;quot;:[{&amp;quot;id&amp;quot;:40,&amp;quot;type&amp;quot;:&amp;quot;text&amp;quot;,&amp;quot;selection&amp;quot;:{&amp;quot;start&amp;quot;:0,&amp;quot;end&amp;quot;:7},&amp;quot;recordId&amp;quot;:&amp;quot;Jm6gdqNW7oI9sCxLw4wcMv6MnUg&amp;quot;},{&amp;quot;id&amp;quot;:41,&amp;quot;type&amp;quot;:&amp;quot;text&amp;quot;,&amp;quot;selection&amp;quot;:{&amp;quot;start&amp;quot;:0,&amp;quot;end&amp;quot;:9},&amp;quot;recordId&amp;quot;:&amp;quot;KRGwdSQ7ToKaJWxqor5cuaTInsc&amp;quot;}],&amp;quot;pasteFlag&amp;quot;:&amp;quot;a55467dc-4448-43d9-8a51-c65f48c1ca9f&amp;quot;}&quot;&gt;&lt;/span&gt;&lt;/ul&gt;&lt;/div&gt;&lt;span class=&quot;lark-record-clipboard&quot; data-lark-record-format=&quot;docx/record&quot; data-lark-record-data=&quot;{&amp;quot;isCut&amp;quot;:false,&amp;quot;rootId&amp;quot;:&amp;quot;RuBldf5Vfo9JMYx6iIKczuZnnKu&amp;quot;,&amp;quot;parentId&amp;quot;:&amp;quot;RuBldf5Vfo9JMYx6iIKczuZnnKu&amp;quot;,&amp;quot;blockIds&amp;quot;:[4,5,6],&amp;quot;recordIds&amp;quot;:[&amp;quot;TvbRd7zTNoYlx5xaSWnctMKTnJc&amp;quot;,&amp;quot;PfnddO90ho07tExwn2RcnNZzn04&amp;quot;,&amp;quot;AAgldUBWWoGs21xikZmczBg5nfc&amp;quot;],&amp;quot;recordMap&amp;quot;:{&amp;quot;TvbRd7zTNoYlx5xaSWnctMKTnJc&amp;quot;:{&amp;quot;id&amp;quot;:&amp;quot;TvbRd7zTNoYlx5xaSWnctMKTnJc&amp;quot;,&amp;quot;snapshot&amp;quot;:{&amp;quot;type&amp;quot;:&amp;quot;bullet&amp;quot;,&amp;quot;parent_id&amp;quot;:&amp;quot;RuBldf5Vfo9JMYx6iIKczuZnnKu&amp;quot;,&amp;quot;comments&amp;quot;:[],&amp;quot;revisions&amp;quot;:[],&amp;quot;locked&amp;quot;:false,&amp;quot;hidden&amp;quot;:false,&amp;quot;author&amp;quot;:&amp;quot;7412976428939051012&amp;quot;,&amp;quot;children&amp;quot;:[],&amp;quot;text&amp;quot;:{&amp;quot;initialAttributedTexts&amp;quot;:{&amp;quot;text&amp;quot;:{&amp;quot;0&amp;quot;:&amp;quot;POC（可选）&amp;quot;},&amp;quot;attribs&amp;quot;:{&amp;quot;0&amp;quot;:&amp;quot;*0+7&amp;quot;}},&amp;quot;apool&amp;quot;:{&amp;quot;numToAttrib&amp;quot;:{&amp;quot;0&amp;quot;:[&amp;quot;author&amp;quot;,&amp;quot;7412976428939051012&amp;quot;]},&amp;quot;nextNum&amp;quot;:1}},&amp;quot;align&amp;quot;:&amp;quot;&amp;quot;,&amp;quot;folded&amp;quot;:false}},&amp;quot;PfnddO90ho07tExwn2RcnNZzn04&amp;quot;:{&amp;quot;id&amp;quot;:&amp;quot;PfnddO90ho07tExwn2RcnNZzn04&amp;quot;,&amp;quot;snapshot&amp;quot;:{&amp;quot;type&amp;quot;:&amp;quot;bullet&amp;quot;,&amp;quot;parent_id&amp;quot;:&amp;quot;RuBldf5Vfo9JMYx6iIKczuZnnKu&amp;quot;,&amp;quot;comments&amp;quot;:[],&amp;quot;revisions&amp;quot;:[],&amp;quot;locked&amp;quot;:false,&amp;quot;hidden&amp;quot;:false,&amp;quot;author&amp;quot;:&amp;quot;7412976428939051012&amp;quot;,&amp;quot;children&amp;quot;:[],&amp;quot;text&amp;quot;:{&amp;quot;apool&amp;quot;:{&amp;quot;nextNum&amp;quot;:1,&amp;quot;numToAttrib&amp;quot;:{&amp;quot;0&amp;quot;:[&amp;quot;author&amp;quot;,&amp;quot;7412976428939051012&amp;quot;]}},&amp;quot;initialAttributedTexts&amp;quot;:{&amp;quot;attribs&amp;quot;:{&amp;quot;0&amp;quot;:&amp;quot;*0+7&amp;quot;},&amp;quot;text&amp;quot;:{&amp;quot;0&amp;quot;:&amp;quot;源代码（可选）&amp;quot;}}},&amp;quot;align&amp;quot;:&amp;quot;&amp;quot;,&amp;quot;folded&amp;quot;:false}},&amp;quot;AAgldUBWWoGs21xikZmczBg5nfc&amp;quot;:{&amp;quot;id&amp;quot;:&amp;quot;AAgldUBWWoGs21xikZmczBg5nfc&amp;quot;,&amp;quot;snapshot&amp;quot;:{&amp;quot;type&amp;quot;:&amp;quot;bullet&amp;quot;,&amp;quot;parent_id&amp;quot;:&amp;quot;RuBldf5Vfo9JMYx6iIKczuZnnKu&amp;quot;,&amp;quot;comments&amp;quot;:[],&amp;quot;revisions&amp;quot;:[],&amp;quot;locked&amp;quot;:false,&amp;quot;hidden&amp;quot;:false,&amp;quot;author&amp;quot;:&amp;quot;7412976428939051012&amp;quot;,&amp;quot;children&amp;quot;:[],&amp;quot;text&amp;quot;:{&amp;quot;initialAttributedTexts&amp;quot;:{&amp;quot;text&amp;quot;:{&amp;quot;0&amp;quot;:&amp;quot;程序&amp;quot;},&amp;quot;attribs&amp;quot;:{&amp;quot;0&amp;quot;:&amp;quot;*0+2&amp;quot;}},&amp;quot;apool&amp;quot;:{&amp;quot;numToAttrib&amp;quot;:{&amp;quot;0&amp;quot;:[&amp;quot;author&amp;quot;,&amp;quot;7412976428939051012&amp;quot;]},&amp;quot;nextNum&amp;quot;:1}},&amp;quot;align&amp;quot;:&amp;quot;&amp;quot;,&amp;quot;folded&amp;quot;:false}},&amp;quot;RuBldf5Vfo9JMYx6iIKczuZnnKu&amp;quot;:{&amp;quot;id&amp;quot;:&amp;quot;RuBldf5Vfo9JMYx6iIKczuZnnKu&amp;quot;,&amp;quot;snapshot&amp;quot;:{&amp;quot;type&amp;quot;:&amp;quot;page&amp;quot;,&amp;quot;parent_id&amp;quot;:&amp;quot;&amp;quot;,&amp;quot;comments&amp;quot;:null,&amp;quot;revisions&amp;quot;:null,&amp;quot;locked&amp;quot;:false,&amp;quot;hidden&amp;quot;:false,&amp;quot;author&amp;quot;:&amp;quot;7412976428939051012&amp;quot;,&amp;quot;children&amp;quot;:[&amp;quot;HIAmdu5IfoZbTSx6d4ec1iYqnzc&amp;quot;,&amp;quot;GMhhdCyuGomvA2xJty2cEYnkncf&amp;quot;,&amp;quot;TvbRd7zTNoYlx5xaSWnctMKTnJc&amp;quot;,&amp;quot;PfnddO90ho07tExwn2RcnNZzn04&amp;quot;,&amp;quot;AAgldUBWWoGs21xikZmczBg5nfc&amp;quot;,&amp;quot;KK9od5ZNiovkFzxDmaOczReLnSa&amp;quot;,&amp;quot;JDc2dlknroJyZIxdu87c74cInrd&amp;quot;,&amp;quot;S6ivdCjUBobvElx3tZ2ci1amn0e&amp;quot;,&amp;quot;RZMgdb1ORo4ybyxztb0cSrVhnxh&amp;quot;,&amp;quot;QfYqdKMoqonK9TxRnCRcim1BnHb&amp;quot;,&amp;quot;Hq00dmF4ooJ6ijxfpOucx5nnnTZ&amp;quot;,&amp;quot;UswOdZ3BaoeMtPxeuumcVQuZnkp&amp;quot;,&amp;quot;MHOtdts1To7sisxKHZ1c9iP1nxd&amp;quot;,&amp;quot;UNpSdzBXeoWLm0xjsoxctOwtnxb&amp;quot;,&amp;quot;ECuwdkumGoLwpTxDG1jc6C92nic&amp;quot;,&amp;quot;GeP8d3HaJoTEDmxGgf9cBrGknOc&amp;quot;,&amp;quot;WQZIdcfVAoHSLNx5PqPc1365nie&amp;quot;,&amp;quot;Cc3GdavQfoRWB0xrTbNcYygSnqg&amp;quot;,&amp;quot;OJXXd0mLgokEMix9HihcIP8DnMf&amp;quot;,&amp;quot;BFSOdALz1ohSE6xea9HcdN0unTe&amp;quot;,&amp;quot;Ee1zdFYTUoS1iKxCZMbcAJiknLc&amp;quot;,&amp;quot;Q8dTdYfVdoOIHJxTcH8cQom4nxy&amp;quot;,&amp;quot;RapydlbpLofvQpxWsGscCtlPn6g&amp;quot;,&amp;quot;Jm6gdqNW7oI9sCxLw4wcMv6MnUg&amp;quot;,&amp;quot;KRGwdSQ7ToKaJWxqor5cuaTInsc&amp;quot;,&amp;quot;ADeWdoFTVoUucixmIoMcbBROnWe&amp;quot;,&amp;quot;JGA9dLdCWoNfwBxKYmScFI6lnxh&amp;quot;,&amp;quot;QrCLdUKExo3xqSxWp7McDVa1nme&amp;quot;,&amp;quot;Pzh6djxgAoLJvtxvp97cIpdfnPJ&amp;quot;,&amp;quot;ZgkkdCxXOobmb6xUdYzctssjnKd&amp;quot;,&amp;quot;KFMhdJSH6on7p5xhWpucoDCUnve&amp;quot;,&amp;quot;ZClYd4C4vo6gtDx5r9Rc8pETnrh&amp;quot;,&amp;quot;QLoAdTOFUoLTFDxrAhEcOfPfnMh&amp;quot;,&amp;quot;A3CPd1q3no1a1bxUjkicf299nyd&amp;quot;,&amp;quot;OskudE3CBoS3AGxmxjScip8rnFg&amp;quot;,&amp;quot;J6YZdZahBoeX9HxxYe6cMBGQnhd&amp;quot;,&amp;quot;LNWRdg8eNoruHlxmzyVcEYqCn5d&amp;quot;,&amp;quot;BipXdwlC3oq00ZxQKu1cHDILnyd&amp;quot;,&amp;quot;GZbcdwVURo4RHyx5QN4c8OfAnui&amp;quot;,&amp;quot;WwWCdjlGporsPhxKpVHcaTS0nNb&amp;quot;,&amp;quot;WNridHP5No7neKxs281cjpCkn4g&amp;quot;,&amp;quot;JMNgdkp8forRrqxHp2fcDO2Xnbb&amp;quot;,&amp;quot;HHr1dddTIoiB6LxRlEIcWh89nwc&amp;quot;,&amp;quot;QNhsd3voYoAlZixGnfecUsubnGb&amp;quot;,&amp;quot;JEfwdlR32oBxJ2xq5QGcKh9Bnbh&amp;quot;,&amp;quot;XuaUdHM4Uof77pxL2cFcsegSnF9&amp;quot;,&amp;quot;JIEYdIVdIoNhEQx2ED7cWSQFned&amp;quot;,&amp;quot;L2sJdYLKFobazaxYC2ccqfq2n7b&amp;quot;,&amp;quot;BK4hdY8wuoY7KRxKxhRcEWDgnHd&amp;quot;,&amp;quot;PXHqd7DZtoZVFUxCY1McGU1ondd&amp;quot;,&amp;quot;RoEhd199uofHRUx3gmqcezQ1nQh&amp;quot;,&amp;quot;F7BLdgpbtoJb16xaXOocARMen8v&amp;quot;,&amp;quot;VKzRdqIAXod2rhxfUb1cm3jvnCl&amp;quot;,&amp;quot;Wo4Id1RqioaqVCx2gOqcaAV8ndc&amp;quot;,&amp;quot;GRxrdOy7foitngxVYG5cKYlVnnh&amp;quot;,&amp;quot;W2oSdsUtcoJ6rJxgx3fcsIuVnye&amp;quot;,&amp;quot;KE8NdhRWRotZNyx75XUc5FJmnQ9&amp;quot;,&amp;quot;GRPyd0TcJovDi1xEO2Jcp1uznYg&amp;quot;,&amp;quot;BfFedysT4oIa2hxrqywcGiXQnvd&amp;quot;,&amp;quot;HVFGdi44io5x6ZxqLJzcDoaanje&amp;quot;,&amp;quot;V3hsdod3aojBbKxuc4JcuheNnUf&amp;quot;,&amp;quot;MVj3dm7S9o7Z8yxDD1vcqpGjn8d&amp;quot;,&amp;quot;Pdd8duDGpo1HrExSrL9cGxpkn1f&amp;quot;,&amp;quot;BcFvdlJHNoewEGxPbmvc1QGunif&amp;quot;,&amp;quot;X4nNdQW9JoLG6DxFg8gcHC0cnYf&amp;quot;,&amp;quot;O49ydg9GgoB4y8xwXxMcj5zcnrc&amp;quot;,&amp;quot;OES5dHMu3oRxXAxfY2scUcYRnPb&amp;quot;,&amp;quot;G7mAdnxrro3AVuxjNKscXanBnId&amp;quot;,&amp;quot;TGh6dOm4loo3NxxH5smcyL7Pncb&amp;quot;,&amp;quot;GtxQdjHrEofGmixWzyScVqYmnhO&amp;quot;,&amp;quot;SOSDdvcvco8t73xfGLkc6FEqnZd&amp;quot;,&amp;quot;Jur3dSM0homYdnxoCvPcFGgjnUh&amp;quot;,&amp;quot;WjX4dkx0RoPezsxXYuFcYFeznvg&amp;quot;,&amp;quot;Jw2ydBVU1oSXq6xx4Psckcr3ngN&amp;quot;,&amp;quot;L1eydJ7nPorMDQxpIMEcOkIan9g&amp;quot;,&amp;quot;J1pVdUMhHoNnLAxNqRgctbpOnnf&amp;quot;,&amp;quot;CISudsCH1o9vkKxrDRpc6Wrbneg&amp;quot;,&amp;quot;GtZ0dERIRoL7YWxcSwrcZE7FnOc&amp;quot;,&amp;quot;U2zodFVNMoRBLSxxTmac3fF7n2g&amp;quot;,&amp;quot;OLIsdU7qBo7TeRx6bIocfmF2njd&amp;quot;,&amp;quot;GT71dYtweoYrKAxXlVtcvEAjn1c&amp;quot;,&amp;quot;F0YAdXUowoxj5VxxrFocou0hnVh&amp;quot;,&amp;quot;Hkn3dYCH5opAzmx0PRAcIjRsnId&amp;quot;,&amp;quot;YnxSd7MMeo01jXxIw88cUKTOn1b&amp;quot;,&amp;quot;CKVKdfW1got9Idxkb8ycpKkonUg&amp;quot;],&amp;quot;text&amp;quot;:{&amp;quot;apool&amp;quot;:{&amp;quot;nextNum&amp;quot;:1,&amp;quot;numToAttrib&amp;quot;:{&amp;quot;0&amp;quot;:[&amp;quot;author&amp;quot;,&amp;quot;7412976428939051012&amp;quot;]}},&amp;quot;initialAttributedTexts&amp;quot;:{&amp;quot;attribs&amp;quot;:{&amp;quot;0&amp;quot;:&amp;quot;*0+a&amp;quot;},&amp;quot;text&amp;quot;:{&amp;quot;0&amp;quot;:&amp;quot;PwnGPT-思维树&amp;quot;}}},&amp;quot;align&amp;quot;:&amp;quot;&amp;quot;,&amp;quot;doc_info&amp;quot;:{&amp;quot;editors&amp;quot;:[&amp;quot;7412976428939051012&amp;quot;],&amp;quot;options&amp;quot;:[&amp;quot;editors&amp;quot;,&amp;quot;edit_time&amp;quot;],&amp;quot;deleted_editors&amp;quot;:[&amp;quot;7254496082938462212&amp;quot;],&amp;quot;option_modified&amp;quot;:null}}}},&amp;quot;payloadMap&amp;quot;:{},&amp;quot;extra&amp;quot;:{&amp;quot;channel&amp;quot;:&amp;quot;saas&amp;quot;,&amp;quot;pasteRandomId&amp;quot;:&amp;quot;dcf0537c-a98d-4572-b193-6c7c1768ddcb&amp;quot;,&amp;quot;mention_page_title&amp;quot;:{},&amp;quot;external_mention_url&amp;quot;:{},&amp;quot;isEqualBlockSelection&amp;quot;:true},&amp;quot;isKeepQuoteContainer&amp;quot;:false,&amp;quot;selection&amp;quot;:[{&amp;quot;id&amp;quot;:4,&amp;quot;type&amp;quot;:&amp;quot;text&amp;quot;,&amp;quot;selection&amp;quot;:{&amp;quot;start&amp;quot;:0,&amp;quot;end&amp;quot;:7},&amp;quot;recordId&amp;quot;:&amp;quot;TvbRd7zTNoYlx5xaSWnctMKTnJc&amp;quot;},{&amp;quot;id&amp;quot;:5,&amp;quot;type&amp;quot;:&amp;quot;text&amp;quot;,&amp;quot;selection&amp;quot;:{&amp;quot;start&amp;quot;:0,&amp;quot;end&amp;quot;:7},&amp;quot;recordId&amp;quot;:&amp;quot;PfnddO90ho07tExwn2RcnNZzn04&amp;quot;},{&amp;quot;id&amp;quot;:6,&amp;quot;type&amp;quot;:&amp;quot;text&amp;quot;,&amp;quot;selection&amp;quot;:{&amp;quot;start&amp;quot;:0,&amp;quot;end&amp;quot;:2},&amp;quot;recordId&amp;quot;:&amp;quot;AAgldUBWWoGs21xikZmczBg5nfc&amp;quot;}],&amp;quot;pasteFlag&amp;quot;:&amp;quot;a55467dc-4448-43d9-8a51-c65f48c1ca9f&amp;quot;}&quot;&gt;&lt;/span&gt;" style="text;html=1;align=center;verticalAlign=middle;resizable=0;points=[];autosize=1;strokeColor=none;fillColor=none;" vertex="1" parent="1">
          <mxGeometry x="20" y="255" width="170" height="70" as="geometry" />
        </mxCell>
        <mxCell id="XoWg0RiAyaY4ZKKg6dh2-68" value="" style="strokeWidth=2;html=1;shape=mxgraph.flowchart.annotation_2;align=left;labelPosition=right;pointerEvents=1;rotation=-180;" vertex="1" parent="1">
          <mxGeometry x="570" y="240" width="20" height="100" as="geometry" />
        </mxCell>
        <mxCell id="XoWg0RiAyaY4ZKKg6dh2-69" value="&lt;div data-docx-has-block-data=&quot;false&quot; data-lark-html-role=&quot;root&quot; data-page-id=&quot;RuBldf5Vfo9JMYx6iIKczuZnnKu&quot;&gt;&lt;ul class=&quot;list-bullet2&quot;&gt;&lt;li data-list=&quot;bullet&quot; class=&quot;ace-line ace-line old-record-id-JGA9dLdCWoNfwBxKYmScFI6lnxh&quot;&gt;一个优化（可选）的POC&lt;/li&gt;&lt;li data-list=&quot;bullet&quot; class=&quot;ace-line ace-line old-record-id-QrCLdUKExo3xqSxWp7McDVa1nme&quot;&gt;POC的完整机理的解释&lt;/li&gt;&lt;li data-list=&quot;bullet&quot; class=&quot;ace-line ace-line old-record-id-Pzh6djxgAoLJvtxvp97cIpdfnPJ&quot;&gt;POC组成部分的解释&lt;/li&gt;&lt;li data-list=&quot;bullet&quot; class=&quot;ace-line ace-line old-record-id-ZgkkdCxXOobmb6xUdYzctssjnKd&quot;&gt;POC作用机理的解释&lt;/li&gt;&lt;li data-list=&quot;bullet&quot; class=&quot;ace-line ace-line old-record-id-KFMhdJSH6on7p5xhWpucoDCUnve&quot;&gt;&lt;div&gt;漏洞触发的约束&lt;/div&gt;&lt;/li&gt;&lt;/ul&gt;&lt;/div&gt;&lt;span class=&quot;lark-record-clipboard&quot; data-lark-record-format=&quot;docx/record&quot; data-lark-record-data=&quot;{&amp;quot;isCut&amp;quot;:false,&amp;quot;rootId&amp;quot;:&amp;quot;RuBldf5Vfo9JMYx6iIKczuZnnKu&amp;quot;,&amp;quot;parentId&amp;quot;:&amp;quot;RuBldf5Vfo9JMYx6iIKczuZnnKu&amp;quot;,&amp;quot;blockIds&amp;quot;:[8,9],&amp;quot;recordIds&amp;quot;:[&amp;quot;JDc2dlknroJyZIxdu87c74cInrd&amp;quot;,&amp;quot;S6ivdCjUBobvElx3tZ2ci1amn0e&amp;quot;],&amp;quot;recordMap&amp;quot;:{&amp;quot;JDc2dlknroJyZIxdu87c74cInrd&amp;quot;:{&amp;quot;id&amp;quot;:&amp;quot;JDc2dlknroJyZIxdu87c74cInrd&amp;quot;,&amp;quot;snapshot&amp;quot;:{&amp;quot;type&amp;quot;:&amp;quot;bullet&amp;quot;,&amp;quot;parent_id&amp;quot;:&amp;quot;RuBldf5Vfo9JMYx6iIKczuZnnKu&amp;quot;,&amp;quot;comments&amp;quot;:[],&amp;quot;revisions&amp;quot;:[],&amp;quot;locked&amp;quot;:false,&amp;quot;hidden&amp;quot;:false,&amp;quot;author&amp;quot;:&amp;quot;7412976428939051012&amp;quot;,&amp;quot;children&amp;quot;:[],&amp;quot;text&amp;quot;:{&amp;quot;initialAttributedTexts&amp;quot;:{&amp;quot;text&amp;quot;:{&amp;quot;0&amp;quot;:&amp;quot;漏洞的可能类型&amp;quot;},&amp;quot;attribs&amp;quot;:{&amp;quot;0&amp;quot;:&amp;quot;*0+7&amp;quot;}},&amp;quot;apool&amp;quot;:{&amp;quot;numToAttrib&amp;quot;:{&amp;quot;0&amp;quot;:[&amp;quot;author&amp;quot;,&amp;quot;7412976428939051012&amp;quot;]},&amp;quot;nextNum&amp;quot;:1}},&amp;quot;align&amp;quot;:&amp;quot;&amp;quot;,&amp;quot;folded&amp;quot;:false}},&amp;quot;S6ivdCjUBobvElx3tZ2ci1amn0e&amp;quot;:{&amp;quot;id&amp;quot;:&amp;quot;S6ivdCjUBobvElx3tZ2ci1amn0e&amp;quot;,&amp;quot;snapshot&amp;quot;:{&amp;quot;type&amp;quot;:&amp;quot;bullet&amp;quot;,&amp;quot;parent_id&amp;quot;:&amp;quot;RuBldf5Vfo9JMYx6iIKczuZnnKu&amp;quot;,&amp;quot;comments&amp;quot;:[],&amp;quot;revisions&amp;quot;:[],&amp;quot;locked&amp;quot;:false,&amp;quot;hidden&amp;quot;:false,&amp;quot;author&amp;quot;:&amp;quot;7412976428939051012&amp;quot;,&amp;quot;children&amp;quot;:[],&amp;quot;text&amp;quot;:{&amp;quot;initialAttributedTexts&amp;quot;:{&amp;quot;text&amp;quot;:{&amp;quot;0&amp;quot;:&amp;quot;漏洞的触发点&amp;quot;},&amp;quot;attribs&amp;quot;:{&amp;quot;0&amp;quot;:&amp;quot;*0+6&amp;quot;}},&amp;quot;apool&amp;quot;:{&amp;quot;numToAttrib&amp;quot;:{&amp;quot;0&amp;quot;:[&amp;quot;author&amp;quot;,&amp;quot;7412976428939051012&amp;quot;]},&amp;quot;nextNum&amp;quot;:1}},&amp;quot;align&amp;quot;:&amp;quot;&amp;quot;,&amp;quot;folded&amp;quot;:false}},&amp;quot;RuBldf5Vfo9JMYx6iIKczuZnnKu&amp;quot;:{&amp;quot;id&amp;quot;:&amp;quot;RuBldf5Vfo9JMYx6iIKczuZnnKu&amp;quot;,&amp;quot;snapshot&amp;quot;:{&amp;quot;type&amp;quot;:&amp;quot;page&amp;quot;,&amp;quot;parent_id&amp;quot;:&amp;quot;&amp;quot;,&amp;quot;comments&amp;quot;:null,&amp;quot;revisions&amp;quot;:null,&amp;quot;locked&amp;quot;:false,&amp;quot;hidden&amp;quot;:false,&amp;quot;author&amp;quot;:&amp;quot;7412976428939051012&amp;quot;,&amp;quot;children&amp;quot;:[&amp;quot;HIAmdu5IfoZbTSx6d4ec1iYqnzc&amp;quot;,&amp;quot;GMhhdCyuGomvA2xJty2cEYnkncf&amp;quot;,&amp;quot;TvbRd7zTNoYlx5xaSWnctMKTnJc&amp;quot;,&amp;quot;PfnddO90ho07tExwn2RcnNZzn04&amp;quot;,&amp;quot;AAgldUBWWoGs21xikZmczBg5nfc&amp;quot;,&amp;quot;KK9od5ZNiovkFzxDmaOczReLnSa&amp;quot;,&amp;quot;JDc2dlknroJyZIxdu87c74cInrd&amp;quot;,&amp;quot;S6ivdCjUBobvElx3tZ2ci1amn0e&amp;quot;,&amp;quot;RZMgdb1ORo4ybyxztb0cSrVhnxh&amp;quot;,&amp;quot;QfYqdKMoqonK9TxRnCRcim1BnHb&amp;quot;,&amp;quot;Hq00dmF4ooJ6ijxfpOucx5nnnTZ&amp;quot;,&amp;quot;UswOdZ3BaoeMtPxeuumcVQuZnkp&amp;quot;,&amp;quot;MHOtdts1To7sisxKHZ1c9iP1nxd&amp;quot;,&amp;quot;UNpSdzBXeoWLm0xjsoxctOwtnxb&amp;quot;,&amp;quot;ECuwdkumGoLwpTxDG1jc6C92nic&amp;quot;,&amp;quot;GeP8d3HaJoTEDmxGgf9cBrGknOc&amp;quot;,&amp;quot;WQZIdcfVAoHSLNx5PqPc1365nie&amp;quot;,&amp;quot;Cc3GdavQfoRWB0xrTbNcYygSnqg&amp;quot;,&amp;quot;OJXXd0mLgokEMix9HihcIP8DnMf&amp;quot;,&amp;quot;BFSOdALz1ohSE6xea9HcdN0unTe&amp;quot;,&amp;quot;Ee1zdFYTUoS1iKxCZMbcAJiknLc&amp;quot;,&amp;quot;Q8dTdYfVdoOIHJxTcH8cQom4nxy&amp;quot;,&amp;quot;RapydlbpLofvQpxWsGscCtlPn6g&amp;quot;,&amp;quot;Jm6gdqNW7oI9sCxLw4wcMv6MnUg&amp;quot;,&amp;quot;KRGwdSQ7ToKaJWxqor5cuaTInsc&amp;quot;,&amp;quot;ADeWdoFTVoUucixmIoMcbBROnWe&amp;quot;,&amp;quot;JGA9dLdCWoNfwBxKYmScFI6lnxh&amp;quot;,&amp;quot;QrCLdUKExo3xqSxWp7McDVa1nme&amp;quot;,&amp;quot;Pzh6djxgAoLJvtxvp97cIpdfnPJ&amp;quot;,&amp;quot;ZgkkdCxXOobmb6xUdYzctssjnKd&amp;quot;,&amp;quot;KFMhdJSH6on7p5xhWpucoDCUnve&amp;quot;,&amp;quot;ZClYd4C4vo6gtDx5r9Rc8pETnrh&amp;quot;,&amp;quot;QLoAdTOFUoLTFDxrAhEcOfPfnMh&amp;quot;,&amp;quot;A3CPd1q3no1a1bxUjkicf299nyd&amp;quot;,&amp;quot;OskudE3CBoS3AGxmxjScip8rnFg&amp;quot;,&amp;quot;J6YZdZahBoeX9HxxYe6cMBGQnhd&amp;quot;,&amp;quot;LNWRdg8eNoruHlxmzyVcEYqCn5d&amp;quot;,&amp;quot;BipXdwlC3oq00ZxQKu1cHDILnyd&amp;quot;,&amp;quot;GZbcdwVURo4RHyx5QN4c8OfAnui&amp;quot;,&amp;quot;WwWCdjlGporsPhxKpVHcaTS0nNb&amp;quot;,&amp;quot;WNridHP5No7neKxs281cjpCkn4g&amp;quot;,&amp;quot;JMNgdkp8forRrqxHp2fcDO2Xnbb&amp;quot;,&amp;quot;HHr1dddTIoiB6LxRlEIcWh89nwc&amp;quot;,&amp;quot;QNhsd3voYoAlZixGnfecUsubnGb&amp;quot;,&amp;quot;JEfwdlR32oBxJ2xq5QGcKh9Bnbh&amp;quot;,&amp;quot;XuaUdHM4Uof77pxL2cFcsegSnF9&amp;quot;,&amp;quot;JIEYdIVdIoNhEQx2ED7cWSQFned&amp;quot;,&amp;quot;L2sJdYLKFobazaxYC2ccqfq2n7b&amp;quot;,&amp;quot;BK4hdY8wuoY7KRxKxhRcEWDgnHd&amp;quot;,&amp;quot;PXHqd7DZtoZVFUxCY1McGU1ondd&amp;quot;,&amp;quot;RoEhd199uofHRUx3gmqcezQ1nQh&amp;quot;,&amp;quot;F7BLdgpbtoJb16xaXOocARMen8v&amp;quot;,&amp;quot;VKzRdqIAXod2rhxfUb1cm3jvnCl&amp;quot;,&amp;quot;Wo4Id1RqioaqVCx2gOqcaAV8ndc&amp;quot;,&amp;quot;GRxrdOy7foitngxVYG5cKYlVnnh&amp;quot;,&amp;quot;W2oSdsUtcoJ6rJxgx3fcsIuVnye&amp;quot;,&amp;quot;KE8NdhRWRotZNyx75XUc5FJmnQ9&amp;quot;,&amp;quot;GRPyd0TcJovDi1xEO2Jcp1uznYg&amp;quot;,&amp;quot;BfFedysT4oIa2hxrqywcGiXQnvd&amp;quot;,&amp;quot;HVFGdi44io5x6ZxqLJzcDoaanje&amp;quot;,&amp;quot;V3hsdod3aojBbKxuc4JcuheNnUf&amp;quot;,&amp;quot;MVj3dm7S9o7Z8yxDD1vcqpGjn8d&amp;quot;,&amp;quot;Pdd8duDGpo1HrExSrL9cGxpkn1f&amp;quot;,&amp;quot;BcFvdlJHNoewEGxPbmvc1QGunif&amp;quot;,&amp;quot;X4nNdQW9JoLG6DxFg8gcHC0cnYf&amp;quot;,&amp;quot;O49ydg9GgoB4y8xwXxMcj5zcnrc&amp;quot;,&amp;quot;OES5dHMu3oRxXAxfY2scUcYRnPb&amp;quot;,&amp;quot;G7mAdnxrro3AVuxjNKscXanBnId&amp;quot;,&amp;quot;TGh6dOm4loo3NxxH5smcyL7Pncb&amp;quot;,&amp;quot;GtxQdjHrEofGmixWzyScVqYmnhO&amp;quot;,&amp;quot;SOSDdvcvco8t73xfGLkc6FEqnZd&amp;quot;,&amp;quot;Jur3dSM0homYdnxoCvPcFGgjnUh&amp;quot;,&amp;quot;WjX4dkx0RoPezsxXYuFcYFeznvg&amp;quot;,&amp;quot;Jw2ydBVU1oSXq6xx4Psckcr3ngN&amp;quot;,&amp;quot;L1eydJ7nPorMDQxpIMEcOkIan9g&amp;quot;,&amp;quot;J1pVdUMhHoNnLAxNqRgctbpOnnf&amp;quot;,&amp;quot;CISudsCH1o9vkKxrDRpc6Wrbneg&amp;quot;,&amp;quot;GtZ0dERIRoL7YWxcSwrcZE7FnOc&amp;quot;,&amp;quot;U2zodFVNMoRBLSxxTmac3fF7n2g&amp;quot;,&amp;quot;OLIsdU7qBo7TeRx6bIocfmF2njd&amp;quot;,&amp;quot;GT71dYtweoYrKAxXlVtcvEAjn1c&amp;quot;,&amp;quot;F0YAdXUowoxj5VxxrFocou0hnVh&amp;quot;,&amp;quot;Hkn3dYCH5opAzmx0PRAcIjRsnId&amp;quot;,&amp;quot;YnxSd7MMeo01jXxIw88cUKTOn1b&amp;quot;,&amp;quot;CKVKdfW1got9Idxkb8ycpKkonUg&amp;quot;],&amp;quot;text&amp;quot;:{&amp;quot;apool&amp;quot;:{&amp;quot;nextNum&amp;quot;:1,&amp;quot;numToAttrib&amp;quot;:{&amp;quot;0&amp;quot;:[&amp;quot;author&amp;quot;,&amp;quot;7412976428939051012&amp;quot;]}},&amp;quot;initialAttributedTexts&amp;quot;:{&amp;quot;attribs&amp;quot;:{&amp;quot;0&amp;quot;:&amp;quot;*0+a&amp;quot;},&amp;quot;text&amp;quot;:{&amp;quot;0&amp;quot;:&amp;quot;PwnGPT-思维树&amp;quot;}}},&amp;quot;align&amp;quot;:&amp;quot;&amp;quot;,&amp;quot;doc_info&amp;quot;:{&amp;quot;editors&amp;quot;:[&amp;quot;7412976428939051012&amp;quot;],&amp;quot;options&amp;quot;:[&amp;quot;editors&amp;quot;,&amp;quot;edit_time&amp;quot;],&amp;quot;deleted_editors&amp;quot;:[&amp;quot;7254496082938462212&amp;quot;],&amp;quot;option_modified&amp;quot;:null}}}},&amp;quot;payloadMap&amp;quot;:{},&amp;quot;extra&amp;quot;:{&amp;quot;channel&amp;quot;:&amp;quot;saas&amp;quot;,&amp;quot;pasteRandomId&amp;quot;:&amp;quot;737483c5-f1a0-46b5-97fa-4e2a70d0c176&amp;quot;,&amp;quot;mention_page_title&amp;quot;:{},&amp;quot;external_mention_url&amp;quot;:{},&amp;quot;isEqualBlockSelection&amp;quot;:true},&amp;quot;isKeepQuoteContainer&amp;quot;:false,&amp;quot;selection&amp;quot;:[{&amp;quot;id&amp;quot;:8,&amp;quot;type&amp;quot;:&amp;quot;text&amp;quot;,&amp;quot;selection&amp;quot;:{&amp;quot;start&amp;quot;:0,&amp;quot;end&amp;quot;:7},&amp;quot;recordId&amp;quot;:&amp;quot;JDc2dlknroJyZIxdu87c74cInrd&amp;quot;},{&amp;quot;id&amp;quot;:9,&amp;quot;type&amp;quot;:&amp;quot;text&amp;quot;,&amp;quot;selection&amp;quot;:{&amp;quot;start&amp;quot;:0,&amp;quot;end&amp;quot;:6},&amp;quot;recordId&amp;quot;:&amp;quot;S6ivdCjUBobvElx3tZ2ci1amn0e&amp;quot;}],&amp;quot;pasteFlag&amp;quot;:&amp;quot;a55467dc-4448-43d9-8a51-c65f48c1ca9f&amp;quot;}&quot;&gt;&lt;/span&gt;" style="text;html=1;align=center;verticalAlign=middle;resizable=0;points=[];autosize=1;strokeColor=none;fillColor=none;" vertex="1" parent="1">
          <mxGeometry x="595" y="240" width="200" height="110" as="geometry" />
        </mxCell>
      </root>
    </mxGraphModel>
  </diagram>
</mxfile>
